<svg xmlns="http://www.w3.org/2000/svg" viewBox="0 0 500 500"><g id="freepik--background-complete--inject-22"><rect x="416.78" y="398.49" width="33.12" height="0.25" style="fill:#ebebeb"></rect><rect x="322.53" y="401.21" width="8.69" height="0.25" style="fill:#ebebeb"></rect><rect x="396.59" y="389.21" width="19.19" height="0.25" style="fill:#ebebeb"></rect><rect x="52.46" y="390.89" width="43.19" height="0.25" style="fill:#ebebeb"></rect><rect x="104.56" y="390.89" width="6.33" height="0.25" style="fill:#ebebeb"></rect><rect x="131.47" y="395.11" width="93.68" height="0.25" style="fill:#ebebeb"></rect><path d="M237,337.8H43.92a5.71,5.71,0,0,1-5.71-5.71V60.66A5.71,5.71,0,0,1,43.92,55H237a5.71,5.71,0,0,1,5.71,5.71V332.09A5.71,5.71,0,0,1,237,337.8ZM43.92,55.2a5.47,5.47,0,0,0-5.46,5.46V332.09a5.47,5.47,0,0,0,5.46,5.46H237a5.47,5.47,0,0,0,5.46-5.46V60.66A5.47,5.47,0,0,0,237,55.2Z" style="fill:#ebebeb"></path><path d="M453.31,337.8H260.21a5.72,5.72,0,0,1-5.71-5.71V60.66A5.72,5.72,0,0,1,260.21,55h193.1A5.71,5.71,0,0,1,459,60.66V332.09A5.71,5.71,0,0,1,453.31,337.8ZM260.21,55.2a5.47,5.47,0,0,0-5.46,5.46V332.09a5.47,5.47,0,0,0,5.46,5.46h193.1a5.47,5.47,0,0,0,5.46-5.46V60.66a5.47,5.47,0,0,0-5.46-5.46Z" style="fill:#ebebeb"></path><rect y="382.4" width="500" height="0.25" style="fill:#ebebeb"></rect><path d="M167.28,129l-29.14-1.7a5.3,5.3,0,0,0-3,.7h0c-9.62,8.34-20,2.77-24.58-.52a11.33,11.33,0,0,0-5.94-2.13L72.2,123.42c-12.18-.71-14.13-17.94-2.39-21.27l.45-.12C58.15,90.68,87.38,70,115.9,102.67c-1.76-10.45,25-5.16,32.4,9.41C151.77,103,176.54,120.56,167.28,129Z" style="fill:#fafafa"></path><path d="M190,91.28c3.74-10.65,11.65-24.5,39.73-21.48s14,20,30,22,13.72-6.3,26.74,7,11.51,1.73,22.58,8.33S181.27,116.25,190,91.28Z" style="fill:#f5f5f5"></path><path d="M352.86,123.78l20.55-.39,1.7.72a33.72,33.72,0,0,0,29.13-1.32h0l17.18-.33s16-6.36,13.58-22.36-26.41-2.17-26.41-2.17,6.93-22.51-16.45-15.71-25.25,29-25.25,29S335.91,106.45,352.86,123.78Z" style="fill:#f5f5f5"></path><path d="M407,357.7l-.73.09c0-.37-4.43-37.09,4.62-67.11,9-29.83,2.8-48.83,2.74-49l.69-.24c.06.2,6.33,19.42-2.73,49.47C402.58,320.76,407,357.33,407,357.7Z" style="fill:#e0e0e0"></path><path d="M414.92,245.75a11.34,11.34,0,0,0-6.1-3.76l.17-.71a12.1,12.1,0,0,1,6.49,4Z" style="fill:#e0e0e0"></path><rect x="415.96" y="249.34" width="2.4" height="0.73" transform="translate(-68.87 237.43) rotate(-29.46)" style="fill:#e0e0e0"></rect><path d="M414.14,265.72a17.32,17.32,0,0,0-9.38-9.09L405,256a18,18,0,0,1,9.77,9.48Z" style="fill:#e0e0e0"></path><path d="M412.18,288.66h-.73a10,10,0,0,0-3.77-7.66l.45-.58A10.76,10.76,0,0,1,412.18,288.66Z" style="fill:#e0e0e0"></path><path d="M410.56,294.53l-.68-.27a7.33,7.33,0,0,1,4.14-4.09l.26.69A6.49,6.49,0,0,0,410.56,294.53Z" style="fill:#e0e0e0"></path><path d="M405.83,331.76l-.56-.47c.89-1.07,1.56-5.14,1.92-7.33.09-.52.16-1,.22-1.29l.72.14c-.06.31-.14.75-.22,1.27C407.37,327.35,406.77,330.63,405.83,331.76Z" style="fill:#e0e0e0"></path><path d="M405.41,343.44a7.19,7.19,0,0,0-7-4.8l0-.73a7.93,7.93,0,0,1,7.68,5.31Z" style="fill:#e0e0e0"></path><rect x="404.83" y="353.81" width="7.71" height="0.73" transform="translate(-127.72 422.97) rotate(-48.22)" style="fill:#e0e0e0"></rect><path d="M414.61,313.59c1.17,3.76-6.95,10.94-6.95,10.94s-10.75-1.35-11.91-5.12,1.55-9.93,6.76-11.54S413.45,309.82,414.61,313.59Z" style="fill:#f0f0f0"></path><path d="M423.62,267.87c-1,4-8.72,6.84-8.72,6.84s-5.36-6.2-4.33-10.2,5.28-8.41,8.89-7.48S424.65,263.87,423.62,267.87Z" style="fill:#ebebeb"></path><path d="M392.77,327.66c4.83,1.88,7.79,10.41,7.79,10.41s-8,4.29-12.78,2.41-9.94-7.17-8.56-10.71S387.94,325.78,392.77,327.66Z" style="fill:#f5f5f5"></path><path d="M403.36,280.68a10.38,10.38,0,0,0,3.29,1.87,3.49,3.49,0,0,0,3.52-.83c1-1.19.76-3,.11-4.47-1.29-2.84-6-7.67-9.7-6.28C395.3,273,401,278.94,403.36,280.68Z" style="fill:#e6e6e6"></path><path d="M414.15,287.93c-.69.85-1.43,1.94-1,3a2.21,2.21,0,0,0,2.43,1.19,6.42,6.42,0,0,0,2.61-1.27c1.87-1.3,5.68-4,3.25-6.55S415.61,286.12,414.15,287.93Z" style="fill:#ebebeb"></path><path d="M398.57,251.82a1.92,1.92,0,0,0-1.74,1.41c-.16.92.61,1.73,1.35,2.3,1.85,1.43,7.41,5.27,8.65,1.56C408,253.59,401,251.54,398.57,251.82Z" style="fill:#e0e0e0"></path><path d="M408.82,239.61c-1.15.11-2.29-.31-3.44-.23s-2.43,1-2.17,2.12,1.52,1.38,2.59,1.45a21,21,0,0,0,5.42-.37,1.7,1.7,0,0,0,1.1-.56c.46-.68-.28-1.6-1.07-1.84a11.85,11.85,0,0,1-2.4-.58Z" style="fill:#e6e6e6"></path><path d="M420,247.5c1.15,0,2.27-.46,3.42-.46s2.48.84,2.3,2-1.43,1.49-2.48,1.62a20.64,20.64,0,0,1-5.44,0,1.69,1.69,0,0,1-1.13-.48c-.51-.66.17-1.62.94-1.91a12.22,12.22,0,0,0,2.36-.73Z" style="fill:#f0f0f0"></path><path d="M418.89,332.33a1.59,1.59,0,0,1,1-.49,1.11,1.11,0,0,1,1,1,3,3,0,0,1-.18,1.45c-.78,2.61-9.54,21.52-11.56,18.13-1.19-2,1.74-8.66,2.6-10.54A27.43,27.43,0,0,1,418.89,332.33Z" style="fill:#f0f0f0"></path><path d="M413.65,240.33a9.8,9.8,0,0,1,2.83-4.2c1.38-1,3.59-1.08,4.6.3,1.12,1.55,0,3.89-1.73,4.72s-3.74.57-5.63.3l-.05-.84Z" style="fill:#e6e6e6"></path><path d="M419.68,382.73h0a71.8,71.8,0,0,1-28.17,0h0l-7.35-32.34H427Z" style="fill:#e6e6e6"></path><rect x="110.12" y="174.61" width="26.48" height="49.16" transform="translate(246.73 398.39) rotate(180)" style="fill:#ebebeb"></rect><rect x="117.5" y="174.61" width="26.48" height="49.16" transform="translate(261.49 398.39) rotate(180)" style="fill:#f5f5f5"></rect><rect x="107.95" y="163.9" width="39.51" height="10.72" style="fill:#f5f5f5"></rect><rect x="107.95" y="163.9" width="6.08" height="10.72" style="fill:#ebebeb"></rect><rect x="86.29" y="249.09" width="179.6" height="133.31" transform="translate(352.18 631.48) rotate(180)" style="fill:#e6e6e6"></rect><polygon points="174.57 147.48 276.18 249.09 72.97 249.09 174.57 147.48" style="fill:#f5f5f5"></polygon><rect x="72.97" y="249.09" width="203.21" height="11.72" transform="translate(349.14 509.9) rotate(180)" style="fill:#e0e0e0"></rect><rect x="146.38" y="272.05" width="50.54" height="50.54" style="fill:#e0e0e0"></rect><rect x="148.24" y="272.05" width="50.54" height="50.54" style="fill:#f0f0f0"></rect><rect x="150.7" y="274.11" width="45.53" height="45.53" style="fill:#fff"></rect><rect x="194.63" y="274.11" width="1.6" height="45.53" style="fill:#e0e0e0"></rect><rect x="171.88" y="276.95" width="1.6" height="44.24" transform="translate(-126.39 471.75) rotate(-90)" style="fill:#e0e0e0"></rect><rect x="149.84" y="295.58" width="46.39" height="2.69" style="fill:#f0f0f0"></rect></g><g id="freepik--Shadow--inject-22"><ellipse id="freepik--path--inject-22" cx="245.18" cy="412.39" rx="193.89" ry="11.32" style="fill:#f5f5f5"></ellipse></g><g id="freepik--Sign--inject-22"><path d="M353,327.06l14.82,84.7H379.2l-.89-7H394.7l1.57,7h11.36l-14.82-84.7Zm8.71,8.42a4.72,4.72,0,0,1,4.78-5.23h13.37a5.83,5.83,0,0,1,5.69,5.23,4.73,4.73,0,0,1-4.78,5.24H367.43a5.85,5.85,0,0,1-5.7-5.24Z" style="fill:#96c133"></path><path d="M353,327.06l14.82,84.7H379.2l-.89-7H394.7l1.57,7h11.36l-14.82-84.7Zm9.45,8.42a4.27,4.27,0,0,1,4.32-5.23h13.36a6.22,6.22,0,0,1,4,1.53,6.41,6.41,0,0,1,2.19,3.7,4.29,4.29,0,0,1-4.32,5.24H368.62a6.18,6.18,0,0,1-4-1.54A6.34,6.34,0,0,1,362.47,335.48Z" style="opacity:0.30000000000000004"></path><path d="M353,327.06l-14.82,84.7h11.36l1.57-7h16.39l-.89,7H378l14.82-84.7Zm28.16,12.12a6.18,6.18,0,0,1-4,1.54H363.8a4.29,4.29,0,0,1-4.32-5.24,6.41,6.41,0,0,1,2.19-3.7,6.22,6.22,0,0,1,4-1.53H379a4.27,4.27,0,0,1,4.32,5.23A6.34,6.34,0,0,1,381.14,339.18Z" style="fill:#96c133"></path><path d="M368.4,363.81h-3l1.08-6.17a.86.86,0,0,1,.81-.69h1.6a.56.56,0,0,1,.56.69Z" style="fill:#263238"></path><path d="M376.73,369.44H354.84l.57-3.28a3.49,3.49,0,0,1,3.31-2.82H375a2.31,2.31,0,0,1,2.33,2.82Z" style="fill:#263238"></path><path d="M376.74,369.44l-2.92,16.67-5-.05.66-6.16-1.41,6.15-3.76,0,.66-6.12-1.4,6.11-7.25-.08,1.06-6-1.89,6-6.21-.07.6-1.29a57.54,57.54,0,0,0,4.95-15.13Z" style="fill:#96c133"></path><path d="M376.74,369.44l-2.92,16.67-5-.05.66-6.16-1.41,6.15-3.76,0,.66-6.12-1.4,6.11-7.25-.08,1.06-6-1.89,6-6.21-.07.6-1.29a57.54,57.54,0,0,0,4.95-15.13Z" style="fill:#fff;opacity:0.5"></path></g><g id="freepik--Device--inject-22"><path d="M315.54,359.15H213.62a19.1,19.1,0,0,1-19.31-20.76l17-243.62A22.62,22.62,0,0,1,233.56,74H335.48a19.11,19.11,0,0,1,19.31,20.76l-17,243.62A22.62,22.62,0,0,1,315.54,359.15Z" style="fill:#96c133"></path><path d="M310.25,359.15H208.32A19.11,19.11,0,0,1,189,338.39l17-243.62A22.62,22.62,0,0,1,228.26,74H330.19A19.11,19.11,0,0,1,349.5,94.77l-17,243.62A22.6,22.6,0,0,1,310.25,359.15Z" style="fill:#263238"></path><path d="M329.86,78.77h-26.5a3.77,3.77,0,0,0-3.63,3l-.16.83A9.19,9.19,0,0,1,290.7,90H265.52a7.73,7.73,0,0,1-7.84-7.36l-.05-.83a3.16,3.16,0,0,0-3.21-3H227.93a17.43,17.43,0,0,0-17.12,16l-17,243.62a14.72,14.72,0,0,0,14.88,16H310.58a17.43,17.43,0,0,0,17.12-16l17-243.62A14.74,14.74,0,0,0,329.86,78.77Z" style="fill:#96c133"></path><path d="M344.73,94.77l-.35,5L327.7,338.39a17.43,17.43,0,0,1-17.12,16H208.65a14.71,14.71,0,0,1-14.87-16L210.46,99.72l.35-5a17.43,17.43,0,0,1,17.11-16h26.5a3.16,3.16,0,0,1,3.21,3l.05.82A7.73,7.73,0,0,0,265.51,90h25.18a9.18,9.18,0,0,0,8.87-7.36l.16-.82a3.78,3.78,0,0,1,3.64-3h26.49A14.72,14.72,0,0,1,344.73,94.77Z" style="fill:#fff;opacity:0.8"></path><path d="M344.38,100.4,327.7,339.07a17.43,17.43,0,0,1-17.12,16H208.65a14.71,14.71,0,0,1-14.87-16L210.46,100.4Z" style="opacity:0.7000000000000001"></path><g style="opacity:0.7000000000000001"><path d="M272.54,81.47a2.21,2.21,0,0,1-2.17,2,1.87,1.87,0,0,1-1.88-2,2.2,2.2,0,0,1,2.17-2A1.85,1.85,0,0,1,272.54,81.47Z"></path><path d="M287,79.45h-6.94a2.2,2.2,0,0,0-2.16,2,1.86,1.86,0,0,0,1.88,2h6.94a2.21,2.21,0,0,0,2.17-2A1.86,1.86,0,0,0,287,79.45Z"></path></g><polygon points="222.25 89.93 224.39 89.93 224.54 87.78 222.4 87.78 222.25 89.93" style="fill:#96c133"></polygon><polygon points="226.68 87.78 226.53 89.93 228.68 89.93 228.83 87.78 228.98 85.64 226.83 85.64 226.68 87.78" style="fill:#96c133"></polygon><polygon points="231.27 83.5 231.12 85.64 230.97 87.78 230.82 89.93 232.96 89.93 233.11 87.78 233.26 85.64 233.41 83.5 231.27 83.5" style="fill:#96c133"></polygon><path d="M323.44,83.64l-.11,1.57h-1.05l-.22,3.15h1.05L323,89.93h9.43l.44-6.29Zm3.86,4.72h-3.15l.22-3.15h3.15Z" style="fill:#96c133"></path><path d="M270.07,202l-4.4,2.33a26.56,26.56,0,0,0,.71,3.92l4.8-.08A22.27,22.27,0,0,0,274,214l-2.82,4.11a26.29,26.29,0,0,0,2.61,2.87l4.33-2.46a22.59,22.59,0,0,0,5.52,3.36l-.5,4.79a26.9,26.9,0,0,0,3.82,1l2.7-4.19a26.13,26.13,0,0,0,3.34.23,26.86,26.86,0,0,0,3.37-.23l2,4.19a30.7,30.7,0,0,0,4-1l.34-4.79a28.08,28.08,0,0,0,6.1-3.36l3.9,2.46a35.24,35.24,0,0,0,3.12-2.87L313.73,214a28,28,0,0,0,3.87-5.81l4.79.08a33.13,33.13,0,0,0,1.39-3.92l-4-2.33a26.83,26.83,0,0,0,.52-3.35,25.27,25.27,0,0,0,.07-3.36l4.4-2.33a29.46,29.46,0,0,0-.71-3.92l-4.8.08a22.75,22.75,0,0,0-2.85-5.81l2.82-4.11a26.38,26.38,0,0,0-2.62-2.87l-4.32,2.47a22.32,22.32,0,0,0-5.52-3.37l.5-4.79a28.43,28.43,0,0,0-3.83-1l-2.7,4.2a24.18,24.18,0,0,0-3.33-.23,25.25,25.25,0,0,0-3.38.23l-2-4.2a31.91,31.91,0,0,0-4,1l-.34,4.79a28,28,0,0,0-6.11,3.37l-3.89-2.47a33.89,33.89,0,0,0-3.12,2.87l2.1,4.11a28.68,28.68,0,0,0-3.87,5.81l-4.78-.08a29.91,29.91,0,0,0-1.39,3.92l4,2.33a24.39,24.39,0,0,0-.59,6.71Zm16.62-3.35a9.49,9.49,0,0,1,9.28-8.53,7.68,7.68,0,0,1,7.78,8.53,9.49,9.49,0,0,1-9.27,8.53A7.69,7.69,0,0,1,286.69,198.68Z" style="fill:#96c133"></path><path d="M270.07,202l-4.4,2.33a26.56,26.56,0,0,0,.71,3.92l4.8-.08A22.27,22.27,0,0,0,274,214l-2.82,4.11a26.29,26.29,0,0,0,2.61,2.87l4.33-2.46a22.59,22.59,0,0,0,5.52,3.36l-.5,4.79a26.9,26.9,0,0,0,3.82,1l2.7-4.19a26.13,26.13,0,0,0,3.34.23,26.86,26.86,0,0,0,3.37-.23l2,4.19a30.7,30.7,0,0,0,4-1l.34-4.79a28.08,28.08,0,0,0,6.1-3.36l3.9,2.46a35.24,35.24,0,0,0,3.12-2.87L313.73,214a28,28,0,0,0,3.87-5.81l4.79.08a33.13,33.13,0,0,0,1.39-3.92l-4-2.33a26.83,26.83,0,0,0,.52-3.35,25.27,25.27,0,0,0,.07-3.36l4.4-2.33a29.46,29.46,0,0,0-.71-3.92l-4.8.08a22.75,22.75,0,0,0-2.85-5.81l2.82-4.11a26.38,26.38,0,0,0-2.62-2.87l-4.32,2.47a22.32,22.32,0,0,0-5.52-3.37l.5-4.79a28.43,28.43,0,0,0-3.83-1l-2.7,4.2a24.18,24.18,0,0,0-3.33-.23,25.25,25.25,0,0,0-3.38.23l-2-4.2a31.91,31.91,0,0,0-4,1l-.34,4.79a28,28,0,0,0-6.11,3.37l-3.89-2.47a33.89,33.89,0,0,0-3.12,2.87l2.1,4.11a28.68,28.68,0,0,0-3.87,5.81l-4.78-.08a29.91,29.91,0,0,0-1.39,3.92l4,2.33a24.39,24.39,0,0,0-.59,6.71Zm16.62-3.35a9.49,9.49,0,0,1,9.28-8.53,7.68,7.68,0,0,1,7.78,8.53,9.49,9.49,0,0,1-9.27,8.53A7.69,7.69,0,0,1,286.69,198.68Z" style="fill:#fff;opacity:0.4"></path><path d="M227.63,165.13,220.31,169a30.58,30.58,0,0,0,.58,3.2l8-.14a20.47,20.47,0,0,0,2.17,4.43l-4.7,6.84a27.86,27.86,0,0,0,2.14,2.34l7.19-4.1a20.67,20.67,0,0,0,4.21,2.56l-.83,8a28.64,28.64,0,0,0,3.12.86l4.48-7a23.77,23.77,0,0,0,2.55.14,24.44,24.44,0,0,0,2.57-.14l3.26,7a32.72,32.72,0,0,0,3.27-.86l.57-8a26,26,0,0,0,4.65-2.56l6.48,4.1q1.32-1.11,2.55-2.34l-3.51-6.84a25.86,25.86,0,0,0,2.95-4.43l8,.14c.43-1.05.81-2.11,1.14-3.2l-6.63-3.88q.24-1.26.36-2.55a22.1,22.1,0,0,0,.08-2.56l7.31-3.87a30.1,30.1,0,0,0-.57-3.2l-8,.13a20.7,20.7,0,0,0-2.17-4.43l4.7-6.83a28,28,0,0,0-2.14-2.35l-7.2,4.1a21,21,0,0,0-4.2-2.55l.83-8a26.52,26.52,0,0,0-3.12-.85l-4.49,7a23.59,23.59,0,0,0-2.54-.14,24.44,24.44,0,0,0-2.57.14l-3.26-7a30.17,30.17,0,0,0-3.27.85l-.57,8a26.58,26.58,0,0,0-4.65,2.55l-6.48-4.1c-.89.74-1.74,1.53-2.55,2.35l3.5,6.83a26.82,26.82,0,0,0-2.94,4.43l-8-.13a32,32,0,0,0-1.14,3.2l6.63,3.87a23.89,23.89,0,0,0-.36,2.56A21.86,21.86,0,0,0,227.63,165.13Zm13.65-2.55a11.13,11.13,0,0,1,10.86-10,9,9,0,0,1,9.12,10,11.13,11.13,0,0,1-10.86,10A9,9,0,0,1,241.28,162.58Z" style="fill:#96c133"></path><path d="M227.63,165.13,220.31,169a30.58,30.58,0,0,0,.58,3.2l8-.14a20.47,20.47,0,0,0,2.17,4.43l-4.7,6.84a27.86,27.86,0,0,0,2.14,2.34l7.19-4.1a20.67,20.67,0,0,0,4.21,2.56l-.83,8a28.64,28.64,0,0,0,3.12.86l4.48-7a23.77,23.77,0,0,0,2.55.14,24.44,24.44,0,0,0,2.57-.14l3.26,7a32.72,32.72,0,0,0,3.27-.86l.57-8a26,26,0,0,0,4.65-2.56l6.48,4.1q1.32-1.11,2.55-2.34l-3.51-6.84a25.86,25.86,0,0,0,2.95-4.43l8,.14c.43-1.05.81-2.11,1.14-3.2l-6.63-3.88q.24-1.26.36-2.55a22.1,22.1,0,0,0,.08-2.56l7.31-3.87a30.1,30.1,0,0,0-.57-3.2l-8,.13a20.7,20.7,0,0,0-2.17-4.43l4.7-6.83a28,28,0,0,0-2.14-2.35l-7.2,4.1a21,21,0,0,0-4.2-2.55l.83-8a26.52,26.52,0,0,0-3.12-.85l-4.49,7a23.59,23.59,0,0,0-2.54-.14,24.44,24.44,0,0,0-2.57.14l-3.26-7a30.17,30.17,0,0,0-3.27.85l-.57,8a26.58,26.58,0,0,0-4.65,2.55l-6.48-4.1c-.89.74-1.74,1.53-2.55,2.35l3.5,6.83a26.82,26.82,0,0,0-2.94,4.43l-8-.13a32,32,0,0,0-1.14,3.2l6.63,3.87a23.89,23.89,0,0,0-.36,2.56A21.86,21.86,0,0,0,227.63,165.13Zm13.65-2.55a11.13,11.13,0,0,1,10.86-10,9,9,0,0,1,9.12,10,11.13,11.13,0,0,1-10.86,10A9,9,0,0,1,241.28,162.58Z" style="fill:#fff;opacity:0.30000000000000004"></path><path d="M245.79,238l-4.86,2.58a18.43,18.43,0,0,0,.39,2.12l5.3-.09a13.83,13.83,0,0,0,1.44,2.94l-3.12,4.55a18.89,18.89,0,0,0,1.42,1.55l4.78-2.72a13.87,13.87,0,0,0,2.79,1.7l-.55,5.29a20.6,20.6,0,0,0,2.08.58l3-4.64a15.5,15.5,0,0,0,1.69.1,16,16,0,0,0,1.7-.1l2.17,4.64a22.33,22.33,0,0,0,2.17-.58l.38-5.29a17.19,17.19,0,0,0,3.09-1.7l4.3,2.72c.59-.49,1.16-1,1.7-1.55l-2.33-4.55a17.7,17.7,0,0,0,2-2.94l5.28.09a19.81,19.81,0,0,0,.76-2.12L276.9,238a15.63,15.63,0,0,0,.25-1.69,16.25,16.25,0,0,0,.05-1.7l4.86-2.58a18.43,18.43,0,0,0-.39-2.12l-5.3.09a13.83,13.83,0,0,0-1.44-2.94l3.12-4.54a17.52,17.52,0,0,0-1.42-1.56l-4.78,2.72a13.87,13.87,0,0,0-2.79-1.7l.55-5.29a18.24,18.24,0,0,0-2.08-.57l-3,4.63a15.5,15.5,0,0,0-1.69-.1,16,16,0,0,0-1.7.1L259,216.15a19.76,19.76,0,0,0-2.17.57l-.38,5.29a17.19,17.19,0,0,0-3.09,1.7l-4.3-2.72a22.76,22.76,0,0,0-1.7,1.56l2.33,4.54a17.7,17.7,0,0,0-2,2.94l-5.28-.09a19.81,19.81,0,0,0-.76,2.12l4.41,2.58a15.82,15.82,0,0,0-.25,1.7A16.06,16.06,0,0,0,245.79,238Zm6.46-1.69a10.29,10.29,0,0,1,10.05-9.25,8.34,8.34,0,0,1,8.44,9.25,10.29,10.29,0,0,1-10.05,9.24A8.33,8.33,0,0,1,252.25,236.34Z" style="fill:#96c133"></path><path d="M245.79,238l-4.86,2.58a18.43,18.43,0,0,0,.39,2.12l5.3-.09a13.83,13.83,0,0,0,1.44,2.94l-3.12,4.55a18.89,18.89,0,0,0,1.42,1.55l4.78-2.72a13.87,13.87,0,0,0,2.79,1.7l-.55,5.29a20.6,20.6,0,0,0,2.08.58l3-4.64a15.5,15.5,0,0,0,1.69.1,16,16,0,0,0,1.7-.1l2.17,4.64a22.33,22.33,0,0,0,2.17-.58l.38-5.29a17.19,17.19,0,0,0,3.09-1.7l4.3,2.72c.59-.49,1.16-1,1.7-1.55l-2.33-4.55a17.7,17.7,0,0,0,2-2.94l5.28.09a19.81,19.81,0,0,0,.76-2.12L276.9,238a15.63,15.63,0,0,0,.25-1.69,16.25,16.25,0,0,0,.05-1.7l4.86-2.58a18.43,18.43,0,0,0-.39-2.12l-5.3.09a13.83,13.83,0,0,0-1.44-2.94l3.12-4.54a17.52,17.52,0,0,0-1.42-1.56l-4.78,2.72a13.87,13.87,0,0,0-2.79-1.7l.55-5.29a18.24,18.24,0,0,0-2.08-.57l-3,4.63a15.5,15.5,0,0,0-1.69-.1,16,16,0,0,0-1.7.1L259,216.15a19.76,19.76,0,0,0-2.17.57l-.38,5.29a17.19,17.19,0,0,0-3.09,1.7l-4.3-2.72a22.76,22.76,0,0,0-1.7,1.56l2.33,4.54a17.7,17.7,0,0,0-2,2.94l-5.28-.09a19.81,19.81,0,0,0-.76,2.12l4.41,2.58a15.82,15.82,0,0,0-.25,1.7A16.06,16.06,0,0,0,245.79,238Zm6.46-1.69a10.29,10.29,0,0,1,10.05-9.25,8.34,8.34,0,0,1,8.44,9.25,10.29,10.29,0,0,1-10.05,9.24A8.33,8.33,0,0,1,252.25,236.34Z" style="fill:#fff;opacity:0.5"></path><path d="M329.4,78.73H227.48a17.43,17.43,0,0,0-17.12,16l-17,243.61Z" style="fill:#fff;opacity:0.2"></path></g><g id="freepik--Sparkles--inject-22"><path d="M253,128.22a30.31,30.31,0,0,0,.59-3.87c.54-4.37,3.13-7.75,6.4-8.42l2.36-.48s-3.7,0-5.25-1.08c-3.27-2.29-4-9.05-4-9.05s-.91,6.76-4.18,9.05c-1.55,1.08-5.25,1.08-5.25,1.08l2.36.48c3.27.67,5.86,4,6.4,8.42A30.31,30.31,0,0,0,253,128.22Z" style="fill:#96c133"></path><g style="opacity:0.7000000000000001"><path d="M253,128.22a30.31,30.31,0,0,0,.59-3.87c.54-4.37,3.13-7.75,6.4-8.42l2.36-.48s-3.7,0-5.25-1.08c-3.27-2.29-4-9.05-4-9.05s-.91,6.76-4.18,9.05c-1.55,1.08-5.25,1.08-5.25,1.08l2.36.48c3.27.67,5.86,4,6.4,8.42A30.31,30.31,0,0,0,253,128.22Z" style="fill:#fff"></path></g><path d="M179.09,146a47.16,47.16,0,0,0,.92-6c.84-6.78,4.86-12,9.92-13.06l3.66-.75s-5.74,0-8.13-1.67c-5.08-3.55-6.24-14-6.24-14s-1.42,10.49-6.5,14c-2.39,1.67-8.13,1.67-8.13,1.67l3.66.75c5.06,1,9.08,6.28,9.92,13.06A47.16,47.16,0,0,0,179.09,146Z" style="fill:#96c133"></path><g style="opacity:0.7000000000000001"><path d="M179.09,146a47.16,47.16,0,0,0,.92-6c.84-6.78,4.86-12,9.92-13.06l3.66-.75s-5.74,0-8.13-1.67c-5.08-3.55-6.24-14-6.24-14s-1.42,10.49-6.5,14c-2.39,1.67-8.13,1.67-8.13,1.67l3.66.75c5.06,1,9.08,6.28,9.92,13.06A47.16,47.16,0,0,0,179.09,146Z" style="fill:#fff"></path></g><path d="M223.26,230.6a29.94,29.94,0,0,0,.59-3.87c.54-4.37,3.13-7.75,6.39-8.41l2.36-.48s-3.7,0-5.24-1.08c-3.27-2.29-4-9-4-9s-.92,6.76-4.19,9c-1.54,1.08-5.24,1.08-5.24,1.08l2.36.48c3.26.66,5.85,4,6.39,8.41A27.14,27.14,0,0,0,223.26,230.6Z" style="fill:#96c133"></path><g style="opacity:0.7000000000000001"><path d="M223.26,230.6a29.94,29.94,0,0,0,.59-3.87c.54-4.37,3.13-7.75,6.39-8.41l2.36-.48s-3.7,0-5.24-1.08c-3.27-2.29-4-9-4-9s-.92,6.76-4.19,9c-1.54,1.08-5.24,1.08-5.24,1.08l2.36.48c3.26.66,5.85,4,6.39,8.41A27.14,27.14,0,0,0,223.26,230.6Z" style="fill:#fff"></path></g></g><g id="freepik--Stairs--inject-22"><path d="M138,411.91a2.4,2.4,0,0,0,3-2.39l0-4.63h60.46l0,3.64a3.6,3.6,0,0,0,3,3.38,2.41,2.41,0,0,0,3-2.39l-1.12-229.88a3.64,3.64,0,0,0-3-3.38,2.41,2.41,0,0,0-3,2.39l0,3.68H139.83v-2.69a3.64,3.64,0,0,0-3-3.38,2.41,2.41,0,0,0-3,2.39L135,408.53A3.61,3.61,0,0,0,138,411.91Zm63.16-55.28H140.68l-.19-38.89H201Zm-61.07-126h60.46l.19,38.89H140.26Zm60.67,43.57.19,38.89H140.47l-.19-38.89ZM200.31,187l.19,38.89H140L139.85,187ZM140.9,400.2l-.19-38.89h60.46l.19,38.89Z" style="fill:#263238"></path><path d="M97.19,411.91a2.93,2.93,0,0,0,3.38-2.39l.8-4.63h60.45l-.62,3.64a2.93,2.93,0,0,0,5.77,1l39.41-229.88a2.93,2.93,0,0,0-5.77-1l-.63,3.68H139.52l.46-2.69a2.93,2.93,0,0,0-5.77-1L94.8,408.53A2.93,2.93,0,0,0,97.19,411.91Zm72.91-55.28H109.64l6.67-38.89h60.45Zm-38.85-126H191.7L185,269.48H124.58Zm53,43.57-6.66,38.89H117.11l6.67-38.89ZM199.17,187l-6.66,38.89H132.05L138.72,187Zm-97,213.19,6.67-38.89h60.45l-6.66,38.89Z" style="fill:#263238"></path><path d="M97.19,411.91a2.93,2.93,0,0,0,3.38-2.39l.8-4.63h60.45l-.62,3.64a2.93,2.93,0,0,0,5.77,1l39.41-229.88a2.93,2.93,0,0,0-5.77-1l-.63,3.68H139.52l.46-2.69a2.93,2.93,0,0,0-5.77-1L94.8,408.53A2.93,2.93,0,0,0,97.19,411.91Zm72.91-55.28H109.64l6.67-38.89h60.45Zm-38.85-126H191.7L185,269.48H124.58Zm53,43.57-6.66,38.89H117.11l6.67-38.89ZM199.17,187l-6.66,38.89H132.05L138.72,187Zm-97,213.19,6.67-38.89h60.45l-6.66,38.89Z" style="fill:#fff;opacity:0.2"></path></g><g id="freepik--Character--inject-22"><rect x="218.09" y="145.58" width="59.54" height="8.91" transform="translate(495.72 300.06) rotate(180)" style="fill:#263238"></rect><rect x="218.09" y="148.16" width="59.54" height="3.74" transform="translate(495.72 300.06) rotate(180)" style="fill:#fff;opacity:0.1"></rect><path d="M115.52,218.74a1.5,1.5,0,0,1-.68-2.84l132.34-67.21a1.5,1.5,0,1,1,1.36,2.68L116.2,218.57A1.52,1.52,0,0,1,115.52,218.74Z" style="fill:#263238"></path><path d="M125.84,178.64S115,189.93,118,195.79s9.72,14,9.72,14-.26,3.05,2.6,3.62l5.85-4.76a37.37,37.37,0,0,0-6.86-.94L124.43,192,132,181.58Z" style="fill:#dd8c6a"></path><path d="M136.16,208.65l1.58,2.68a2.68,2.68,0,0,1-.72,3.52l-.29.21a2.67,2.67,0,0,1-2.81.22l-3.61-1.87Z" style="fill:#dd8c6a"></path><polygon points="100.25 324.31 95.69 336.97 102.72 339.69 108.2 328.01 100.25 324.31" style="fill:#dd8c6a"></polygon><path d="M103.44,340.3a.2.2,0,0,1-.09-.2.19.19,0,0,1,.15-.15c.14,0,3.25-.53,4.35.26a1,1,0,0,1,.4.61.7.7,0,0,1-.27.77,3.36,3.36,0,0,1-2.37-.25A13.51,13.51,0,0,1,103.44,340.3Zm.65,0c1.31.68,3.17,1.36,3.69,1,.07,0,.15-.13.1-.4a.51.51,0,0,0-.25-.37,1.2,1.2,0,0,0-.32-.16A8.51,8.51,0,0,0,104.09,340.27Z" style="fill:#96c133"></path><path d="M103.35,340.25a.17.17,0,0,1,0-.18c0-.09,1-2,2.2-2.43a1.39,1.39,0,0,1,1.08.07c.46.22.52.52.47.73-.15.88-2.51,1.82-3.54,1.89l-.07,0A.17.17,0,0,1,103.35,340.25Zm3-2.26a1,1,0,0,0-.68,0,4.37,4.37,0,0,0-1.82,1.89c1.12-.2,2.74-1,2.88-1.53,0-.05,0-.18-.27-.33l-.11,0Z" style="fill:#96c133"></path><path d="M103.07,339l-8-3a.7.7,0,0,0-.82.27l-3.88,6a1.16,1.16,0,0,0,.33,1.59.91.91,0,0,0,.22.11c2.91,1,5.55,1.83,9.15,3.17,4.26,1.58,3,1.69,8,3.62,3,1.16,4.83-2.06,3.61-2.71-5.57-2.9-5.52-4.9-7-7.83A2.79,2.79,0,0,0,103.07,339Z" style="fill:#263238"></path><polygon points="98.06 330.38 105.43 333.9 108.2 328.01 100.25 324.31 98.06 330.38" style="fill:#263238;opacity:0.2"></polygon><polygon points="142.28 336.43 143.5 349.83 151.02 349.33 151.05 336.43 142.28 336.43" style="fill:#dd8c6a"></polygon><path d="M152.31,349.1a.19.19,0,0,1-.15-.15.17.17,0,0,1,.08-.19c.12-.08,2.8-1.74,4.12-1.42a.92.92,0,0,1,.6.41.69.69,0,0,1,0,.81,3.39,3.39,0,0,1-2.29.68A13.92,13.92,0,0,1,152.31,349.1Zm.6-.27c1.46.13,3.44.05,3.79-.48.05-.06.09-.18,0-.4a.51.51,0,0,0-.38-.25,1,1,0,0,0-.35,0A8.57,8.57,0,0,0,152.91,348.83Z" style="fill:#96c133"></path><path d="M152.21,349.09a.16.16,0,0,1-.08-.16c0-.1.14-2.22,1.11-3.08a1.39,1.39,0,0,1,1-.36c.51,0,.68.29.71.5.2.88-1.63,2.65-2.55,3.1h-.08A.2.2,0,0,1,152.21,349.09Zm1.94-3.24a1,1,0,0,0-.64.26,4.37,4.37,0,0,0-.95,2.44c.95-.61,2.14-2,2.07-2.51,0-.05,0-.19-.38-.2Z" style="fill:#96c133"></path><path d="M151.47,348l-8.56.31a.68.68,0,0,0-.66.56l-1.3,7a1.15,1.15,0,0,0,.91,1.35l.25,0c3.08-.17,5.82-.43,9.67-.56,4.53-.17,3.4.42,8.74.3,3.21-.07,3.67-3.74,2.3-3.87-6.26-.57-7-2.43-9.46-4.57A2.78,2.78,0,0,0,151.47,348Z" style="fill:#263238"></path><polygon points="151.05 336.43 142.28 336.43 142.92 343.43 151.03 343.2 151.05 336.43" style="fill:#263238;opacity:0.2"></polygon><path d="M135.83,212.24s-13.45,8.85-11.25,34.9l-2.24,29.5s-13.34,8.95-24,50.17a24.2,24.2,0,0,0,9.36,4.56l32.08-49.07,11.87-51.09,1.39-17Z" style="fill:#96c133"></path><path d="M135.83,212.24s-13.45,8.85-11.25,34.9l-2.24,29.5s-13.34,8.95-24,50.17a24.2,24.2,0,0,0,9.36,4.56l32.08-49.07,11.87-51.09,1.39-17Z" style="opacity:0.1"></path><path d="M145.75,256.79,140.91,238l-7.71-3.8s0,36.57,3.46,52.9l3.16-4.84Z" style="opacity:0.2"></path><path d="M134.74,168.1a8.73,8.73,0,0,0-7.72,3.17c-3.51,4-7.17,11.1-7.17,11.1s4.52,5.65,9.68,4.93Z" style="fill:#96c133"></path><path d="M134.74,168.1a8.73,8.73,0,0,0-7.72,3.17c-3.51,4-7.17,11.1-7.17,11.1s4.52,5.65,9.68,4.93Z" style="opacity:0.1"></path><path d="M129.53,187.3,133.67,172l-4.15.52S127.35,186.24,129.53,187.3Z" style="opacity:0.1"></path><path d="M139,212.24s-11.1,12.14-4.31,35.91L139.49,278s-6.08,28.43,1.38,62.22a35.21,35.21,0,0,0,11.32-.25l6.94-63.63,3.47-60.82Z" style="fill:#96c133"></path><path d="M154.56,144.5c.32-.06.66.28.76.76s-.08.94-.4,1-.66-.28-.76-.77S154.24,144.55,154.56,144.5Z" style="fill:#263238"></path><path d="M155.19,150.94a2.85,2.85,0,0,0,2.24-.91,17.83,17.83,0,0,1-3.17-3.7Z" style="fill:#932a2a"></path><path d="M152,143.1a2.29,2.29,0,0,1,2-.83h0l.1,0a.29.29,0,0,0,.29-.3.3.3,0,0,0-.29-.3,2.93,2.93,0,0,0-2.47,1,.27.27,0,0,0-.08.19.3.3,0,0,0,.29.3A.31.31,0,0,0,152,143.1Z" style="fill:#263238"></path><path d="M150,159.64c-.88,3.51-.92,7.87,2.92,9.07,0,0,4.78,4-4.44,4-8.38,0-9.61-4.57-9.61-4.57,3.15-3,2.62-9.27,1.73-13.78Z" style="fill:#dd8c6a"></path><path d="M135.46,167.37s1.52-4,3.58-5.21,10.75.58,12.09,1.19,2.58,3.83,2.58,3.83Z" style="fill:#96c133"></path><path d="M135.46,167.37s1.52-4,3.58-5.21,10.75.58,12.09,1.19,2.58,3.83,2.58,3.83Z" style="opacity:0.4"></path><path d="M128.71,174.21c2.83,17,2,33.68,1.27,42.37-.13,1.42-.25,2.63-.35,3.58-.09.76-.15,1.36-.2,1.8l33-.19c.07-.54.14-1.08.2-1.61.15-1.23.3-2.42.43-3.58,2.77-23.72,2.4-36.18,1.16-42.39a8.78,8.78,0,0,0-7.14-6.92c-.38-.06-1.66-.14-3.39-.23-.95,0-2-.09-3.19-.12-3.56-.14-7.74-.22-10.52-.13-.49,0-.93,0-1.33.06-1,.07-2.05.16-3.06.28-.59.05-1.16.12-1.74.2A5.94,5.94,0,0,0,128.71,174.21Z" style="fill:#96c133"></path><path d="M137.41,146a8.19,8.19,0,0,0,.28,1.82c1.16,4.34,1.81,7.4,3.52,9.69a9.1,9.1,0,0,0,2.34,2.23c5.49,3.69,12.36-.55,12.54-6.82.19-5.64-2.43-14.37-8.77-15.56a8.35,8.35,0,0,0-9.79,6.62A8.58,8.58,0,0,0,137.41,146Z" style="fill:#dd8c6a"></path><g style="opacity:0.2"><path d="M137.41,146a8.19,8.19,0,0,0,.28,1.82c1.16,4.34,1.81,7.4,3.52,9.69l6.45.08,3-7.53.82-7.27S142.69,145.53,137.41,146Z"></path></g><path d="M137.41,148.62c-1-1.28-3.54-5.45-3.4-7.09a18.08,18.08,0,0,1,7.59-5.74,18.84,18.84,0,0,1,10.23-.64,14.54,14.54,0,0,1,1.77,4.22,5,5,0,0,1-.62,4.3C150.06,147.52,138.43,149.9,137.41,148.62Z" style="fill:#263238"></path><path d="M151,145.16c1.76.54,2.65,3.14,2.7,4.79.07,1.82-1.16,3-2.73,1.72a6.85,6.85,0,0,1-2.39-3.74C148.16,146.14,149.24,144.63,151,145.16Z" style="fill:#dd8c6a"></path><path d="M134.05,141.49a7.83,7.83,0,0,0,.93.22,19.2,19.2,0,0,0,4.48.17c.3.58.59,1.17.89,1.76v-1.76c.29.41.69,1.09,1,1.5,0-.49.05-1.08,0-1.58a16,16,0,0,0,8.65-4,6.1,6.1,0,0,0,1.55-2,3,3,0,0,0,.2-.69,18.83,18.83,0,0,0-10.12.66A17.87,17.87,0,0,0,134.05,141.49Z" style="fill:#fff;opacity:0.1"></path><path d="M165.06,182.2a19.8,19.8,0,0,0-.7-5.62l-4.78-2.43-2.94,4.35s4.64,9.49,8.47,13.36C165.58,188,165.06,184.53,165.06,182.2Z" style="opacity:0.2"></path><path d="M162.17,172.72s15.05,9.85,14.08,9.81l19.83-7.29a40.83,40.83,0,0,1,1.36-3.93l1.87-1.61A1.85,1.85,0,0,1,201,169l1.4.48c.83.67,1.49.67,1.47,1.11l-1.93,2-3.33,4.25s-16.56,10.2-20.83,13-15.45-7.16-15.45-7.16Z" style="fill:#dd8c6a"></path><path d="M158.2,169.29c4.37.64,8.84,4.12,15.78,10.25a21.3,21.3,0,0,1-7.34,8.48s-4-1.77-8.86-7.9C152,172.7,155.52,168.9,158.2,169.29Z" style="fill:#96c133"></path><path d="M147.73,220.16H162.6c.15-1.23.3-2.42.43-3.58H148.42Z" style="opacity:0.2"></path><path d="M129.63,220.16h1.49l.3-3.58H130C129.85,218,129.73,219.21,129.63,220.16Z" style="opacity:0.2"></path></g></svg>