<svg xmlns="http://www.w3.org/2000/svg" viewBox="0 0 500 500"><g id="freepik--background-complete--inject-64"><path d="M34.22,159.77a6.5,6.5,0,0,1,1.48,1.53,20.83,20.83,0,0,1,4.19,9.37A6.09,6.09,0,0,1,40,172.8a43.66,43.66,0,0,0-2.13-6.86A44.78,44.78,0,0,0,34.22,159.77Z" style="fill:#e0e0e0"></path><path d="M41.31,148.47a4,4,0,0,1,.27,1c.14.63.32,1.55.53,2.69.41,2.28.91,5.44,1.37,9s.76,6.69.94,9c.08,1.15.14,2.09.17,2.74a3.65,3.65,0,0,1,0,1,4.26,4.26,0,0,1-.19-1c-.09-.76-.2-1.67-.33-2.72-.3-2.43-.67-5.54-1.09-9s-.89-6.52-1.22-8.95l-.36-2.71A3.51,3.51,0,0,1,41.31,148.47Z" style="fill:#e0e0e0"></path><path d="M48.09,153.54a21.41,21.41,0,0,1-.53,2.75,46.36,46.36,0,0,0-.79,13.37,21,21,0,0,1,.2,2.79,11.87,11.87,0,0,1-.57-2.75,36,36,0,0,1,.8-13.5A11.56,11.56,0,0,1,48.09,153.54Z" style="fill:#e0e0e0"></path><path d="M54.49,161.17a28.65,28.65,0,0,0-2.69,5.55,28.15,28.15,0,0,0-.88,6.09,4.83,4.83,0,0,1-.25-1.83,14.51,14.51,0,0,1,2.59-8.43A4.61,4.61,0,0,1,54.49,161.17Z" style="fill:#e0e0e0"></path><path d="M180.35,143a14.46,14.46,0,0,1,4.11,8.58c-.15,0-.66-2-1.8-4.41S180.23,143.06,180.35,143Z" style="fill:#e0e0e0"></path><path d="M187.32,143.29a10.48,10.48,0,0,1,.05,3.28,10.73,10.73,0,0,1-.47,3.25,10.48,10.48,0,0,1-.05-3.28A10.73,10.73,0,0,1,187.32,143.29Z" style="fill:#e0e0e0"></path><path d="M194.05,141.91a37.88,37.88,0,0,0-2.63,4.74,39.28,39.28,0,0,0-1.45,5.23,13,13,0,0,1,4.08-10Z" style="fill:#e0e0e0"></path><path d="M309.67,146.73a10.73,10.73,0,0,1,2.44,4,10.52,10.52,0,0,1,1,4.58c-.15,0-.52-2-1.48-4.38S309.55,146.82,309.67,146.73Z" style="fill:#e0e0e0"></path><path d="M316.32,145.19c.07.06-.26.52-.6,1.34a7.67,7.67,0,0,0-.51,3.4,7.59,7.59,0,0,0,1,3.26c.46.77.87,1.17.81,1.23s-.54-.26-1.11-1a6.8,6.8,0,0,1-.56-7C315.83,145.54,316.28,145.15,316.32,145.19Z" style="fill:#e0e0e0"></path><path d="M325.43,141.92a12.36,12.36,0,0,1-.95,2.15c-.63,1.3-1.48,3.11-2.33,5.14s-1.53,3.92-2,5.28a12.38,12.38,0,0,1-.85,2.2,9.59,9.59,0,0,1,.49-2.31,51.72,51.72,0,0,1,1.88-5.37,46.73,46.73,0,0,1,2.48-5.11A10.21,10.21,0,0,1,325.43,141.92Z" style="fill:#e0e0e0"></path><path d="M435.5,155.42s.26.21.64.65a21.6,21.6,0,0,1,1.52,2,31.62,31.62,0,0,1,5.53,15.19,21.72,21.72,0,0,1,.1,2.46,3,3,0,0,1-.08.91c-.08,0-.12-1.29-.38-3.33a37.56,37.56,0,0,0-1.91-7.82,37.12,37.12,0,0,0-3.57-7.21C436.24,156.48,435.44,155.48,435.5,155.42Z" style="fill:#e0e0e0"></path><path d="M446,149.86a4.29,4.29,0,0,1,.19,1.07c.08.69.18,1.69.29,2.92.21,2.48.45,5.9.6,9.69s.21,7.22.2,9.7c0,1.24,0,2.25-.05,2.94a4.43,4.43,0,0,1-.09,1.08,4.23,4.23,0,0,1-.11-1.07q0-1.22-.12-2.94c-.09-2.61-.21-6-.35-9.69s-.33-7.08-.45-9.68c0-1.15-.09-2.13-.13-2.94A4.8,4.8,0,0,1,446,149.86Z" style="fill:#e0e0e0"></path><path d="M464.7,143.54a30.78,30.78,0,0,0-4,3.82,28.2,28.2,0,0,0-5.63,12,61,61,0,0,0-1.13,13.35c0,1.66,0,3,0,4.09a7.6,7.6,0,0,1,0,1.5,8,8,0,0,1-.16-1.49c-.07-1-.15-2.36-.2-4.09a55.6,55.6,0,0,1,1-13.48,27.24,27.24,0,0,1,5.86-12.12,18.37,18.37,0,0,1,3-2.78c.39-.3.72-.48.93-.62A1.41,1.41,0,0,1,464.7,143.54Z" style="fill:#e0e0e0"></path><path d="M31.05,136.73,40,96.33h4.78S47.68,56.78,50.07,56,78.74,54.92,79,56a8.32,8.32,0,0,1,0,2.66l6.37-7.17s7.69,1.59,8.49,1.33,4,30.26,4,30.26,4.51-1.86,5.31.26,0,23.89,0,23.89,14.07-.53,14.6,1.86,13.11,27.66,13.11,27.66" style="fill:#e0e0e0"></path><path d="M367.44,136.73s10.29-19.18,10.61-20.82.33-28.91.32-31.09-.41-3,1.29-4.91,1.69-3.62,4.15-3.31A14,14,0,0,1,389,78.82s3.29,30.27,4.11,30,2-3.27,2-3.27S390.48,69.28,391.92,66s2.18-7.37,3.18-10.91,14.9-9,14.9-9,3.81,10.63,4.9,11.18,6.55,8.45,6.55,8.45S422,99,423.09,98.89,425,92.18,425,92.18V73.91s-.56-13.08,0-13.9,3.29-11.73,3.29-13.91S431,42.83,431,42.83V89.46s5.73,28.9,9.28,29.45,10.08,5.73,10.08,5.73l19.13,12.09" style="fill:#e0e0e0"></path><path d="M188.29,135.89a67.59,67.59,0,1,1,135.17,0" style="fill:#f5f5f5"></path><path d="M459.91,136.73c0,.14-97.1.26-216.84.26s-216.85-.12-216.85-.26,97.07-.26,216.85-.26S459.91,136.58,459.91,136.73Z" style="fill:#e0e0e0"></path></g><g id="freepik--Plants--inject-64"><path d="M170.71,121.09v16.14h0a2.5,2.5,0,0,0,2.5-2.5v-7.06a2,2,0,0,1,1.95-2h0a2,2,0,0,1,2,2v6.13a6.25,6.25,0,0,1-6.26,6.25h0v20H165.5v-8h-1.67a5.3,5.3,0,0,1-5.3-5.17l-.25-10.64a2.16,2.16,0,0,1,2.16-2.21h0a2.15,2.15,0,0,1,2.16,2.22,103.75,103.75,0,0,0,.07,11.46c.44,2.71,2.72,1.95,2.72,1.95s-.88-19.73-1.06-28.45a3.19,3.19,0,0,1,3.19-3.25h0A3.19,3.19,0,0,1,170.71,121.09Z" style="fill:#263238"></path><ellipse cx="164.47" cy="121.54" rx="0.63" ry="0.07" style="fill:#263238"></ellipse><path d="M164.87,123s-.25.07-.55.07-.56,0-.56-.07.25-.07.56-.07S164.87,123,164.87,123Z" style="fill:#263238"></path><path d="M171.36,122s-.25.07-.57.07a1.24,1.24,0,0,1-.58-.07,1.24,1.24,0,0,1,.58-.07C171.11,121.93,171.36,122,171.36,122Z" style="fill:#263238"></path><ellipse cx="170.9" cy="120.35" rx="0.42" ry="0.07" style="fill:#263238"></ellipse><path d="M165,120.35a2.18,2.18,0,0,1-.69-.32,2.36,2.36,0,0,1-.62-.45,2.09,2.09,0,0,1,.69.33A2.42,2.42,0,0,1,165,120.35Z" style="fill:#263238"></path><path d="M166.23,119s-.26-.22-.52-.54a2.3,2.3,0,0,1-.42-.63s.26.22.52.54A2.3,2.3,0,0,1,166.23,119Z" style="fill:#263238"></path><path d="M167.7,118.62a2.72,2.72,0,0,1-.08-.84,2.61,2.61,0,0,1,0-.85,2.72,2.72,0,0,1,.08.84A2.61,2.61,0,0,1,167.7,118.62Z" style="fill:#263238"></path><path d="M169.8,117.43a2.62,2.62,0,0,1-.37.71,2.43,2.43,0,0,1-.48.64,2.31,2.31,0,0,1,.37-.71A2.21,2.21,0,0,1,169.8,117.43Z" style="fill:#263238"></path><path d="M170.56,118.85s-.14.22-.36.41-.43.34-.45.31.13-.21.36-.41S170.53,118.82,170.56,118.85Z" style="fill:#263238"></path><path d="M165.26,125.12a3.42,3.42,0,0,1-.94,0,3.87,3.87,0,0,1-.94-.08,3.18,3.18,0,0,1,.94,0A3.14,3.14,0,0,1,165.26,125.12Z" style="fill:#263238"></path><path d="M172.21,123.61a4.74,4.74,0,0,1-1.15.07,4.79,4.79,0,0,1-1.16-.07,4.79,4.79,0,0,1,1.16-.07A4.74,4.74,0,0,1,172.21,123.61Z" style="fill:#263238"></path><ellipse cx="170.67" cy="124.99" rx="0.38" ry="0.07" style="fill:#263238"></ellipse><path d="M165.68,126.72a3.73,3.73,0,0,1-1,.07,3.63,3.63,0,0,1-1-.07,3.63,3.63,0,0,1,1-.07A3.73,3.73,0,0,1,165.68,126.72Z" style="fill:#263238"></path><ellipse cx="165.14" cy="127.94" rx="1.23" ry="0.07" style="fill:#263238"></ellipse><ellipse cx="170.98" cy="127.22" rx="0.89" ry="0.07" style="fill:#263238"></ellipse><path d="M171.25,128.57s-.18.06-.41.06-.4,0-.4-.06.18-.07.4-.07S171.25,128.53,171.25,128.57Z" style="fill:#263238"></path><path d="M165.25,129.82a4.38,4.38,0,0,1-1.56,0,4.38,4.38,0,0,1,1.56,0Z" style="fill:#263238"></path><path d="M165.3,131a2.64,2.64,0,0,1-1.12,0s.25-.07.56-.07S165.3,131,165.3,131Z" style="fill:#263238"></path><path d="M171.2,130.66s-.23.06-.51.05a1.33,1.33,0,0,1-.52-.09,1,1,0,0,1,.52-.05C171,130.58,171.2,130.62,171.2,130.66Z" style="fill:#263238"></path><path d="M166.1,132.86a7.91,7.91,0,0,1-2.1,0,7.91,7.91,0,0,1,2.1,0Z" style="fill:#263238"></path><path d="M171.6,133.31a3.86,3.86,0,0,1-.93.06,3.91,3.91,0,0,1-.94-.06,3.16,3.16,0,0,1,.94-.07A3.12,3.12,0,0,1,171.6,133.31Z" style="fill:#263238"></path><path d="M170.58,134.33a.11.11,0,0,1,0,.12s-.09.05-.12,0a.1.1,0,0,1,0-.12A.11.11,0,0,1,170.58,134.33Z" style="fill:#263238"></path><path d="M174.47,127.72a2.09,2.09,0,0,1-.88-.43,2,2,0,0,1-.69-.69,8.36,8.36,0,0,1,.77.58C174.1,127.49,174.48,127.68,174.47,127.72Z" style="fill:#263238"></path><path d="M174.57,127.22a2.78,2.78,0,0,1-.55-1,2.93,2.93,0,0,1-.28-1.08s.18.46.41,1S174.6,127.2,174.57,127.22Z" style="fill:#263238"></path><path d="M175.24,127.18a4.43,4.43,0,0,1-.06-1.08,4.34,4.34,0,0,1,.08-1.07,4.43,4.43,0,0,1,.06,1.08A4.34,4.34,0,0,1,175.24,127.18Z" style="fill:#263238"></path><path d="M177.11,125.12a5.51,5.51,0,0,1-1.17,1.88,5.9,5.9,0,0,1,.56-1A5.56,5.56,0,0,1,177.11,125.12Z" style="fill:#263238"></path><path d="M178.05,126.87a3,3,0,0,1-.66.62,2.83,2.83,0,0,1-.75.52,3,3,0,0,1,.66-.62A2.83,2.83,0,0,1,178.05,126.87Z" style="fill:#263238"></path><path d="M178.14,128.58a2.55,2.55,0,0,1-.69.33,2.16,2.16,0,0,1-.74.21,2,2,0,0,1,.69-.33A2.16,2.16,0,0,1,178.14,128.58Z" style="fill:#263238"></path><path d="M177.87,130a1.16,1.16,0,0,1-1.12.09,2.52,2.52,0,0,1,.56,0C177.61,130,177.85,130,177.87,130Z" style="fill:#263238"></path><path d="M173.84,129.1A2.38,2.38,0,0,1,173,129a2.46,2.46,0,0,1-.79-.25,2.91,2.91,0,0,1,.82.12A2.22,2.22,0,0,1,173.84,129.1Z" style="fill:#263238"></path><path d="M174,129.92a2.2,2.2,0,0,1-.8-.07,2.26,2.26,0,0,1-.77-.2,2.2,2.2,0,0,1,.8.07A2.26,2.26,0,0,1,174,129.92Z" style="fill:#263238"></path><path d="M174,130.62s-.23.12-.52.18a1.36,1.36,0,0,1-.55,0s.22-.12.52-.18A1.36,1.36,0,0,1,174,130.62Z" style="fill:#263238"></path><path d="M160,135.05a2.4,2.4,0,0,1-.38-.75,2.92,2.92,0,0,1-.26-.81,2.26,2.26,0,0,1,.38.75A2.82,2.82,0,0,1,160,135.05Z" style="fill:#263238"></path><path d="M160.94,135.18a3.08,3.08,0,0,1,.13-.87,2.6,2.6,0,0,1,.27-.83,2.7,2.7,0,0,1-.13.87A2.6,2.6,0,0,1,160.94,135.18Z" style="fill:#263238"></path><path d="M159.17,135.9a3.42,3.42,0,0,1-.76-.53,3.78,3.78,0,0,1-.67-.63,2.79,2.79,0,0,1,.76.52A2.74,2.74,0,0,1,159.17,135.9Z" style="fill:#263238"></path><path d="M159,136.43a2.13,2.13,0,0,1-.77,0,2.06,2.06,0,0,1-.75-.18,2.13,2.13,0,0,1,.77,0A2.43,2.43,0,0,1,159,136.43Z" style="fill:#263238"></path><path d="M159,137.6a2,2,0,0,1-.7,0,2.2,2.2,0,0,1-.69-.15,1.86,1.86,0,0,1,.7,0A1.81,1.81,0,0,1,159,137.6Z" style="fill:#263238"></path><path d="M159,138.88a1.42,1.42,0,0,1-.56.06,1.32,1.32,0,0,1-.56-.07s.26-.07.56-.07S159,138.84,159,138.88Z" style="fill:#263238"></path><path d="M162.84,138.68s-.25.06-.56,0a1.16,1.16,0,0,1-.56-.09s.25-.06.56,0A1.16,1.16,0,0,1,162.84,138.68Z" style="fill:#263238"></path><path d="M163,137.49a1.24,1.24,0,0,1-.58.07,1.44,1.44,0,0,1-.59-.07,1.3,1.3,0,0,1,.59-.07A1.24,1.24,0,0,1,163,137.49Z" style="fill:#263238"></path><path d="M163.2,135.94a2.26,2.26,0,0,1-.65.38,2.21,2.21,0,0,1-.7.25,2.1,2.1,0,0,1,.65-.38A2.21,2.21,0,0,1,163.2,135.94Z" style="fill:#263238"></path><path d="M162.76,134.79a2,2,0,0,1-.48.52,1.87,1.87,0,0,1-.56.41s.18-.26.47-.52S162.73,134.76,162.76,134.79Z" style="fill:#263238"></path><path d="M165.7,134.25a1.32,1.32,0,0,1-.7.16,1.39,1.39,0,0,1-.71-.12,1754,1754,0,0,0,1.41,0Z" style="fill:#263238"></path><path d="M166,135.62a2.72,2.72,0,0,1-1,.21,2.67,2.67,0,0,1-1,0,7.26,7.26,0,0,1,1-.11A5.15,5.15,0,0,1,166,135.62Z" style="fill:#263238"></path><path d="M166.2,136.77a4.09,4.09,0,0,1-1.09.24,4.9,4.9,0,0,1-1.11.11,4.37,4.37,0,0,1,1.09-.24A4.32,4.32,0,0,1,166.2,136.77Z" style="fill:#263238"></path><path d="M171.17,135.13a1.23,1.23,0,0,1-.54.05c-.3,0-.54-.05-.54-.09a1.32,1.32,0,0,1,.55-.05C170.93,135.05,171.17,135.09,171.17,135.13Z" style="fill:#263238"></path><path d="M171.34,135.75s-.18.07-.41.09-.42,0-.42-.05.18-.08.41-.09S171.34,135.71,171.34,135.75Z" style="fill:#263238"></path><path d="M174.24,132.09a2.55,2.55,0,0,1-1.06,0,2.59,2.59,0,0,1-1-.3,8.14,8.14,0,0,1,1,.17A8.28,8.28,0,0,1,174.24,132.09Z" style="fill:#263238"></path><path d="M178.34,131.36a2.5,2.5,0,0,1-.75.17,2.31,2.31,0,0,1-.78,0,2.2,2.2,0,0,1,.76-.17A2,2,0,0,1,178.34,131.36Z" style="fill:#263238"></path><path d="M165.78,139.44a5.74,5.74,0,0,1-1.7-.33,2.62,2.62,0,0,1,.87.09A2.44,2.44,0,0,1,165.78,139.44Z" style="fill:#263238"></path><path d="M338.76,131.55v9.22h0a1.43,1.43,0,0,1-1.43-1.42v-4a1.12,1.12,0,0,0-1.11-1.12h0a1.12,1.12,0,0,0-1.12,1.12v3.5a3.57,3.57,0,0,0,3.57,3.58h0v11.42h3v-4.59h.95a3,3,0,0,0,3-3l.15-6.08a1.23,1.23,0,0,0-1.23-1.27h0a1.24,1.24,0,0,0-1.23,1.27,60.39,60.39,0,0,1,0,6.55c-.25,1.56-1.56,1.12-1.56,1.12s.51-11.28.61-16.27a1.82,1.82,0,0,0-1.82-1.86h0A1.83,1.83,0,0,0,338.76,131.55Z" style="fill:#263238"></path><path d="M342,131.8s.16,0,.36,0,.36,0,.36,0a1.64,1.64,0,0,0-.72,0Z" style="fill:#263238"></path><path d="M342.1,132.64a.7.7,0,0,0,.32,0,.16.16,0,1,0,0-.08A.7.7,0,0,0,342.1,132.64Z" style="fill:#263238"></path><ellipse cx="338.72" cy="132.07" rx="0.33" ry="0.04" style="fill:#263238"></ellipse><ellipse cx="338.65" cy="131.12" rx="0.24" ry="0.04" style="fill:#263238"></ellipse><path d="M342,131.13a1.58,1.58,0,0,0,.39-.19,1.52,1.52,0,0,0,.36-.25,1.18,1.18,0,0,0-.4.18A1.2,1.2,0,0,0,342,131.13Z" style="fill:#263238"></path><path d="M341.32,130.37s.15-.12.3-.31a1.24,1.24,0,0,0,.24-.36,1.36,1.36,0,0,0-.3.31A1.56,1.56,0,0,0,341.32,130.37Z" style="fill:#263238"></path><path d="M340.48,130.14a1.82,1.82,0,0,0,0-.49,1.41,1.41,0,0,0,0-.48,1.78,1.78,0,0,0-.05.48A1.84,1.84,0,0,0,340.48,130.14Z" style="fill:#263238"></path><path d="M339.28,129.46a1.85,1.85,0,0,0,.21.4,1.63,1.63,0,0,0,.28.37,1.29,1.29,0,0,0-.21-.41A1.22,1.22,0,0,0,339.28,129.46Z" style="fill:#263238"></path><path d="M338.85,130.27s.08.12.2.23.25.2.26.18-.07-.12-.2-.23S338.86,130.25,338.85,130.27Z" style="fill:#263238"></path><path d="M341.88,133.85a2.22,2.22,0,0,0,.54,0,2.13,2.13,0,0,0,.53,0,1.7,1.7,0,0,0-.53,0A2.17,2.17,0,0,0,341.88,133.85Z" style="fill:#263238"></path><ellipse cx="338.56" cy="132.99" rx="0.66" ry="0.04" style="fill:#263238"></ellipse><path d="M338.56,133.78s.1,0,.22,0,.22,0,.22,0-.1,0-.22,0S338.56,133.76,338.56,133.78Z" style="fill:#263238"></path><path d="M341.64,134.77a4.22,4.22,0,0,0,1.16,0,4.23,4.23,0,0,0-1.16,0Z" style="fill:#263238"></path><path d="M341.24,135.46a2.67,2.67,0,0,0,.7,0,2.72,2.72,0,0,0,.71,0,3.36,3.36,0,0,0-.71,0A3.3,3.3,0,0,0,341.24,135.46Z" style="fill:#263238"></path><path d="M338.1,135.05a3.27,3.27,0,0,0,1,0,4.35,4.35,0,0,0-1,0Z" style="fill:#263238"></path><path d="M338.45,135.82s.11,0,.23,0,.23,0,.23,0-.1,0-.23,0S338.45,135.8,338.45,135.82Z" style="fill:#263238"></path><path d="M341.88,136.54a2.55,2.55,0,0,0,.9,0,2.55,2.55,0,0,0-.9,0Z" style="fill:#263238"></path><path d="M341.86,137.23a.7.7,0,0,0,.32,0,.16.16,0,1,0,0-.08A.7.7,0,0,0,341.86,137.23Z" style="fill:#263238"></path><path d="M338.48,137s.13,0,.3,0,.29,0,.29-.06a.64.64,0,0,0-.3,0A.53.53,0,0,0,338.48,137Z" style="fill:#263238"></path><path d="M341.4,138.28a2.34,2.34,0,0,0,.6,0,2.41,2.41,0,0,0,.6,0,2,2,0,0,0-.6,0A1.9,1.9,0,0,0,341.4,138.28Z" style="fill:#263238"></path><path d="M338.25,138.53a1.94,1.94,0,0,0,.54,0,1.89,1.89,0,0,0,.53,0,1.89,1.89,0,0,0-.53,0A1.94,1.94,0,0,0,338.25,138.53Z" style="fill:#263238"></path><path d="M338.84,139.12a0,0,0,0,0,0,.07,0,0,0,0,0,.06,0,0,0,0,0,0,0-.07A0,0,0,0,0,338.84,139.12Z" style="fill:#263238"></path><path d="M336.61,135.34a1.15,1.15,0,0,0,.51-.25,1.34,1.34,0,0,0,.39-.39s-.19.16-.44.33S336.6,135.31,336.61,135.34Z" style="fill:#263238"></path><path d="M336.56,135.05a1.56,1.56,0,0,0,.31-.55,1.76,1.76,0,0,0,.16-.62s-.1.27-.23.59A5.44,5.44,0,0,0,336.56,135.05Z" style="fill:#263238"></path><path d="M336.17,135a2.27,2.27,0,0,0,0-.61,2.57,2.57,0,0,0,0-.62,2.32,2.32,0,0,0,0,.62A2.52,2.52,0,0,0,336.17,135Z" style="fill:#263238"></path><path d="M335.1,133.85a2.42,2.42,0,0,0,.28.57,2.16,2.16,0,0,0,.39.51,11.22,11.22,0,0,0-.67-1.08Z" style="fill:#263238"></path><path d="M334.57,134.85s.15.18.37.36a1.55,1.55,0,0,0,.43.29,2.41,2.41,0,0,0-.38-.35A1.81,1.81,0,0,0,334.57,134.85Z" style="fill:#263238"></path><path d="M334.51,135.83a1.25,1.25,0,0,0,.4.19,1.13,1.13,0,0,0,.42.12,1.14,1.14,0,0,0-.39-.19A1.2,1.2,0,0,0,334.51,135.83Z" style="fill:#263238"></path><path d="M334.67,136.64s.12.1.31.11.34,0,.33-.06a3,3,0,0,0-.32,0A2,2,0,0,0,334.67,136.64Z" style="fill:#263238"></path><path d="M337,136.13a1.46,1.46,0,0,0,.47-.07c.25-.05.46-.11.45-.14a1.52,1.52,0,0,0-.47.07A1.38,1.38,0,0,0,337,136.13Z" style="fill:#263238"></path><path d="M336.87,136.6a1.49,1.49,0,0,0,.45,0,1.72,1.72,0,0,0,.45-.12,1.55,1.55,0,0,0-.46,0A1.26,1.26,0,0,0,336.87,136.6Z" style="fill:#263238"></path><path d="M336.87,137s.13.07.3.1a.63.63,0,0,0,.31,0s-.13-.07-.3-.11A.69.69,0,0,0,336.87,137Z" style="fill:#263238"></path><path d="M344.9,139.53a1.54,1.54,0,0,0,.22-.43,1.51,1.51,0,0,0,.14-.46,2.72,2.72,0,0,0-.36.89Z" style="fill:#263238"></path><path d="M344.35,139.6a1.91,1.91,0,0,0-.08-.49.25.25,0,1,0-.08,0C344.26,139.4,344.32,139.61,344.35,139.6Z" style="fill:#263238"></path><path d="M345.36,140a1.47,1.47,0,0,0,.43-.3,1.75,1.75,0,0,0,.39-.36,1.7,1.7,0,0,0-.44.3A2.18,2.18,0,0,0,345.36,140Z" style="fill:#263238"></path><path d="M345.43,140.32a1.3,1.3,0,0,0,.45,0,1.07,1.07,0,0,0,.42-.1,2.75,2.75,0,0,0-.87.13Z" style="fill:#263238"></path><path d="M345.49,141a1.29,1.29,0,0,0,.4,0,1.13,1.13,0,0,0,.39-.09,1,1,0,0,0-.4,0C345.66,140.92,345.48,141,345.49,141Z" style="fill:#263238"></path><path d="M345.46,141.72a.79.79,0,0,0,.32,0,.16.16,0,1,0,0-.08A.78.78,0,0,0,345.46,141.72Z" style="fill:#263238"></path><path d="M343.26,141.61a.73.73,0,0,0,.32,0,.63.63,0,0,0,.32,0,.79.79,0,0,0-.32,0C343.4,141.56,343.26,141.58,343.26,141.61Z" style="fill:#263238"></path><path d="M343.16,140.92s.15,0,.33,0a.17.17,0,1,0,0-.08A.76.76,0,0,0,343.16,140.92Z" style="fill:#263238"></path><path d="M343.06,140a1.14,1.14,0,0,0,.37.21,1.22,1.22,0,0,0,.4.15,1.37,1.37,0,0,0-.37-.22A1.07,1.07,0,0,0,343.06,140Z" style="fill:#263238"></path><path d="M343.31,139.38s.1.15.27.3.31.25.32.23-.1-.15-.27-.29A1.18,1.18,0,0,0,343.31,139.38Z" style="fill:#263238"></path><path d="M341.62,139.07a1.06,1.06,0,0,0,.81,0,2.86,2.86,0,0,0-.4,0A3.22,3.22,0,0,0,341.62,139.07Z" style="fill:#263238"></path><path d="M341.48,139.86a1.72,1.72,0,0,0,.58.12,1.69,1.69,0,0,0,.58,0,2.48,2.48,0,0,0-.58-.07A2.46,2.46,0,0,0,341.48,139.86Z" style="fill:#263238"></path><path d="M341.34,140.51a2.49,2.49,0,0,0,.62.14,3.05,3.05,0,0,0,.64.06,3.15,3.15,0,0,0-.63-.14A3,3,0,0,0,341.34,140.51Z" style="fill:#263238"></path><path d="M338.5,139.57a.6.6,0,0,0,.31,0c.17,0,.3,0,.3,0a.76.76,0,0,0-.31,0A.69.69,0,0,0,338.5,139.57Z" style="fill:#263238"></path><path d="M338.4,139.93s.11,0,.24,0a.39.39,0,0,0,.24,0s-.11,0-.24,0S338.4,139.91,338.4,139.93Z" style="fill:#263238"></path><path d="M336.74,137.84a1.77,1.77,0,0,0,.61,0,1.53,1.53,0,0,0,.58-.17,4.45,4.45,0,0,0-.59.09A4.18,4.18,0,0,0,336.74,137.84Z" style="fill:#263238"></path><path d="M334.4,137.42a1.45,1.45,0,0,0,.43.1c.24,0,.44,0,.44,0a1.29,1.29,0,0,0-.43-.09A1.39,1.39,0,0,0,334.4,137.42Z" style="fill:#263238"></path><path d="M341.58,142a1.83,1.83,0,0,0,.49-.06,1.67,1.67,0,0,0,.48-.13,1.58,1.58,0,0,0-.49.05A1.73,1.73,0,0,0,341.58,142Z" style="fill:#263238"></path><path d="M34.17,187.9a5.77,5.77,0,0,1,.89.89c.55.58,1.3,1.47,2.18,2.61a48.43,48.43,0,0,1,2.84,4.19,44.84,44.84,0,0,1,2.76,5.55A44.28,44.28,0,0,1,45.71,212c.18,1.43.29,2.59.32,3.39a5.7,5.7,0,0,1,0,1.25c-.09,0-.22-1.76-.68-4.58a50.19,50.19,0,0,0-3-10.72,47.8,47.8,0,0,0-2.69-5.5c-1-1.62-1.88-3.06-2.72-4.21s-1.54-2.08-2-2.7A6.26,6.26,0,0,1,34.17,187.9Z" style="fill:#263238"></path><path d="M48.13,194.41a27.7,27.7,0,0,1-.16,3.27,77.26,77.26,0,0,0,0,7.88,75,75,0,0,0,.83,7.83,29.84,29.84,0,0,1,.48,3.24,2.94,2.94,0,0,1-.29-.83c-.16-.55-.35-1.35-.56-2.34a54.1,54.1,0,0,1-1-7.88,52.35,52.35,0,0,1,.2-7.93c.1-1,.21-1.82.32-2.38A3.28,3.28,0,0,1,48.13,194.41Z" style="fill:#263238"></path><path d="M60.86,191.47c.08.08-1.06,1-2.38,3a21.28,21.28,0,0,0-2,3.61,31.43,31.43,0,0,0-1.57,4.8A51.94,51.94,0,0,0,53.68,212c-.13,2.36-.15,3.82-.23,3.82a3.84,3.84,0,0,1-.11-1c0-.67-.05-1.63,0-2.82a43.77,43.77,0,0,1,1.12-9.22,29.74,29.74,0,0,1,1.64-4.86,19.67,19.67,0,0,1,2.11-3.63,10,10,0,0,1,1-1.25,6.3,6.3,0,0,1,.85-.86A3.73,3.73,0,0,1,60.86,191.47Z" style="fill:#263238"></path><path d="M142.74,166.67a5.61,5.61,0,0,1,1.64,1.35,13.9,13.9,0,0,1,2.66,4.39,29.29,29.29,0,0,1,1.34,4.92,8.24,8.24,0,0,1,.29,2.1,9.05,9.05,0,0,1-.65-2,45.41,45.41,0,0,0-1.47-4.82,16.13,16.13,0,0,0-2.45-4.33A19.27,19.27,0,0,1,142.74,166.67Z" style="fill:#263238"></path><path d="M149,164.86a43,43,0,0,1,.77,6.61,43.28,43.28,0,0,1,.25,6.64,42.71,42.71,0,0,1-.77-6.6A41.93,41.93,0,0,1,149,164.86Z" style="fill:#263238"></path><path d="M157.14,156.39a18.08,18.08,0,0,0-2.08,2.51,19.85,19.85,0,0,0-2.36,7.45,77.44,77.44,0,0,0-.62,7.91,22.17,22.17,0,0,1-.21,3.3,19.36,19.36,0,0,1-.16-3.31,56.08,56.08,0,0,1,.47-8,18.39,18.39,0,0,1,2.57-7.57,8.82,8.82,0,0,1,1.64-1.82C156.86,156.53,157.12,156.36,157.14,156.39Z" style="fill:#263238"></path><path d="M88.7,164.87a18.83,18.83,0,0,1-1.17-2,39.38,39.38,0,0,0-3.11-4.6,41.55,41.55,0,0,0-3.69-4.16,16.44,16.44,0,0,1-1.65-1.62,7.24,7.24,0,0,1,1.9,1.35,30.64,30.64,0,0,1,6.88,8.85A7.24,7.24,0,0,1,88.7,164.87Z" style="fill:#263238"></path><path d="M92.58,164.57a15.09,15.09,0,0,1-1.09-2.38c-.63-1.49-1.53-3.54-2.6-5.75s-2.14-4.18-2.93-5.59a14.57,14.57,0,0,1-1.2-2.33,11.73,11.73,0,0,1,1.52,2.14,61.21,61.21,0,0,1,5.55,11.39A11.12,11.12,0,0,1,92.58,164.57Z" style="fill:#263238"></path><path d="M94.76,164.57a11.69,11.69,0,0,1-.52-2.9,27.82,27.82,0,0,1,.18-7.13,23.4,23.4,0,0,1,1-3.82,17.83,17.83,0,0,1,1.37-2.92A12.73,12.73,0,0,1,98,146c.33-.39.53-.59.56-.57s-.63.94-1.47,2.53a22,22,0,0,0-2.15,6.65,33.4,33.4,0,0,0-.32,7A29.06,29.06,0,0,1,94.76,164.57Z" style="fill:#263238"></path><path d="M365,178.55a37.76,37.76,0,0,1-3.49-5.18,37.27,37.27,0,0,1-3-5.46,37.76,37.76,0,0,1,3.49,5.18A37.27,37.27,0,0,1,365,178.55Z" style="fill:#263238"></path><path d="M368.19,177.52a48.17,48.17,0,0,1-2.37-6.67A48.71,48.71,0,0,1,364,164a48.37,48.37,0,0,1,2.36,6.67A49.26,49.26,0,0,1,368.19,177.52Z" style="fill:#263238"></path><path d="M372.16,162a13.5,13.5,0,0,1-.13,2.48c-.12,1.52-.29,3.62-.41,5.95s-.16,4.44-.18,6a12.49,12.49,0,0,1-.13,2.48,10.2,10.2,0,0,1-.24-2.47c-.07-1.53-.08-3.66,0-6s.35-4.45.57-6A10.59,10.59,0,0,1,372.16,162Z" style="fill:#263238"></path><path d="M459.9,200.66a6.32,6.32,0,0,1,3.28,3.72,11.11,11.11,0,0,1,.44,5c-.37,3.27-2.23,6.56-4.23,9.17-2.75-2.4-3.38-6.59-3.57-8.73-.29-3.39,1.23-9.69,4.08-9.19" style="fill:#9CC378"></path><path d="M462.59,224a5.39,5.39,0,0,1,1.75-5.13,7.13,7.13,0,0,1,5.28-1.65,3,3,0,0,1,2.32,1,2.3,2.3,0,0,1,0,2.34,4.73,4.73,0,0,1-1.73,1.71c-2.38,1.49-5,2.5-7.66,1.69" style="fill:#9CC378"></path><path d="M459.06,234a6.47,6.47,0,0,1,.1-.67c.09-.48.2-1.09.33-1.82a19.15,19.15,0,0,1,1.88-5.79,11.61,11.61,0,0,1,4.15-4.42,8,8,0,0,1,1.7-.75,3.34,3.34,0,0,1,.49-.12c.11,0,.17,0,.17,0a12.36,12.36,0,0,0-2.27,1,12.1,12.1,0,0,0-4,4.39,20.43,20.43,0,0,0-1.91,5.72c-.17.76-.3,1.37-.41,1.79A2.9,2.9,0,0,1,459.06,234Z" style="fill:#263238"></path><path d="M459.17,205.57a1.11,1.11,0,0,1,0,.29c0,.22,0,.49.05.84,0,.73.08,1.79.13,3.1.08,2.62.15,6.23.13,10.23s-.12,7.61-.22,10.23c-.06,1.3-.11,2.36-.15,3.09q0,.53-.06.84a1.4,1.4,0,0,1,0,.3,1.36,1.36,0,0,1,0-.3c0-.22,0-.49,0-.84,0-.76,0-1.81.08-3.1.06-2.62.13-6.23.15-10.22s0-7.61-.06-10.23c0-1.28,0-2.34,0-3.1,0-.34,0-.62,0-.84A.94.94,0,0,1,459.17,205.57Z" style="fill:#263238"></path><path d="M457.83,226a12.63,12.63,0,0,0-6.89-9.25c-.92-.44-2.12-.73-2.88-.05s-.59,1.92-.22,2.87a10.81,10.81,0,0,0,9.93,6.7" style="fill:#9CC378"></path><path d="M451.38,219.81a2.29,2.29,0,0,1,.58.25,6.26,6.26,0,0,1,.66.35c.25.16.55.31.84.53a10.9,10.9,0,0,1,1,.72,12.36,12.36,0,0,1,1,.93,14.42,14.42,0,0,1,1.94,2.49,14,14,0,0,1,1.28,2.9,12.89,12.89,0,0,1,.32,1.34,11.73,11.73,0,0,1,.17,1.19,8.88,8.88,0,0,1,0,1,4.44,4.44,0,0,1,0,.75,2.91,2.91,0,0,1-.07.63c-.05,0,0-.91-.12-2.35a11.32,11.32,0,0,0-.19-1.17c-.08-.42-.21-.86-.34-1.32a14,14,0,0,0-1.28-2.83,14.46,14.46,0,0,0-1.89-2.47c-.34-.34-.66-.66-1-.93a10.48,10.48,0,0,0-.93-.73C452.19,220.23,451.36,219.85,451.38,219.81Z" style="fill:#263238"></path><path d="M92.88,185.19c-1.19,1.46-3.24.79-4.14-.22a7.86,7.86,0,0,1-1.48-3.72c-.62-3-1.24-6.19-.38-9.15a5.08,5.08,0,0,1,1.34-2.38,2.65,2.65,0,0,1,2.56-.64,3.89,3.89,0,0,1,2,2.45A21.75,21.75,0,0,1,94.22,181a7.57,7.57,0,0,1-1.34,4.21" style="fill:#9CC378"></path><g style="opacity:0.2"><path d="M92.88,185.19c-1.19,1.46-3.24.79-4.14-.22a7.86,7.86,0,0,1-1.48-3.72c-.62-3-1.24-6.19-.38-9.15a5.08,5.08,0,0,1,1.34-2.38,2.65,2.65,0,0,1,2.56-.64,3.89,3.89,0,0,1,2,2.45A21.75,21.75,0,0,1,94.22,181a7.57,7.57,0,0,1-1.34,4.21"></path></g><path d="M88.26,192.66a9.3,9.3,0,0,0-5.72-1.14,4.8,4.8,0,0,0-3,1,2.07,2.07,0,0,0-.25,2.85,2.74,2.74,0,0,0,1.77.59c1.53.1,3.24,0,4.39,1,.66.58,1,1.49,1.86,1.81a2,2,0,0,0,2.24-.8,3.4,3.4,0,0,0,.44-2.46A3.82,3.82,0,0,0,88.26,192.66Z" style="fill:#9CC378"></path><path d="M95.66,187.62a5.6,5.6,0,0,1-.48-5.2,9.9,9.9,0,0,1,3.38-4.18,16.27,16.27,0,0,1,5.69-2.8,5.7,5.7,0,0,1,2.49-.23,2.57,2.57,0,0,1,2,1.4c.49,1.13-.16,2.42-.84,3.45a41.73,41.73,0,0,1-4,5.18,9.71,9.71,0,0,1-4.2,3.07c-1.68.5-3.37.3-4.15-.9" style="fill:#9CC378"></path><path d="M91.19,208.34a3,3,0,0,1,0-.7c0-.51,0-1.15,0-1.92a26.08,26.08,0,0,0-.21-2.82,22.3,22.3,0,0,0-.76-3.37,12.09,12.09,0,0,0-1.46-3.11,6.23,6.23,0,0,0-2-1.93,5.65,5.65,0,0,0-1.75-.69,3.2,3.2,0,0,1-.69-.16,3.44,3.44,0,0,1,.71.05,5.44,5.44,0,0,1,1.83.62,6.22,6.22,0,0,1,2.11,2,11.94,11.94,0,0,1,1.51,3.17,19.59,19.59,0,0,1,.75,3.42,23.74,23.74,0,0,1,.16,2.86c0,.81,0,1.47,0,1.92A3.66,3.66,0,0,1,91.19,208.34Z" style="fill:#263238"></path><path d="M91.17,206.87a1.17,1.17,0,0,1,0-.33c0-.24,0-.55.07-.92.06-.8.15-2,.22-3.4.14-2.88.2-6.86,0-11.25s-.49-8.35-.85-11.21c-.09-.71-.18-1.36-.27-1.92s-.15-1.05-.22-1.45l-.15-.92a1.29,1.29,0,0,1,0-.32,1.56,1.56,0,0,1,.09.31c0,.24.12.54.2.91s.18.88.27,1.44.21,1.21.31,1.93A105,105,0,0,1,91.81,191c.15,4.4.06,8.39-.14,11.27-.09,1.44-.21,2.6-.31,3.4,0,.37-.09.68-.13.92A1.43,1.43,0,0,1,91.17,206.87Z" style="fill:#263238"></path><path d="M91.73,199.21a6.2,6.2,0,0,1,.08-1c.09-.62.24-1.51.5-2.59a35.12,35.12,0,0,1,1.14-3.75,32.77,32.77,0,0,1,1.94-4.4,24,24,0,0,1,5.24-6.93,10.73,10.73,0,0,1,1.18-.94l.5-.37.45-.26a8.22,8.22,0,0,1,.85-.46,29.4,29.4,0,0,0-2.85,2.18,25.43,25.43,0,0,0-5.12,6.92A35.85,35.85,0,0,0,93.7,192a36.81,36.81,0,0,0-1.19,3.71c-.29,1.07-.47,2-.59,2.56A5.89,5.89,0,0,1,91.73,199.21Z" style="fill:#263238"></path></g><g id="freepik--Birds--inject-64"><path d="M249.52,37.31a10,10,0,0,1-1.65,0,42.67,42.67,0,0,0-4.48.14,22.82,22.82,0,0,0-6.45,1.48,23.11,23.11,0,0,0-3.51,1.77A31.37,31.37,0,0,0,230,43.24l-.2.18-.18-.22-.76-1a16.15,16.15,0,0,0-3.34-2.88,21.74,21.74,0,0,0-3.71-1.85A27.89,27.89,0,0,0,215,35.92a32.33,32.33,0,0,0-4.77-.16,15.25,15.25,0,0,1-1.75.06s.15,0,.44-.1a13,13,0,0,1,1.3-.16A28.17,28.17,0,0,1,222,37.07a21.85,21.85,0,0,1,3.81,1.85,16.73,16.73,0,0,1,3.47,3l.79,1-.39,0a31.55,31.55,0,0,1,3.48-2.58,23.19,23.19,0,0,1,3.61-1.78,22.23,22.23,0,0,1,6.6-1.4,32.35,32.35,0,0,1,4.51,0c.53,0,.94.08,1.22.11A1.54,1.54,0,0,1,249.52,37.31Z" style="fill:#263238"></path><path d="M195.74,56c0,.1-1.44,0-3.74.16a14.08,14.08,0,0,0-3.92.92,14.9,14.9,0,0,0-4.19,2.62l-.2.18-.18-.22c-.14-.19-.3-.38-.46-.58a10.69,10.69,0,0,0-4.26-2.87,16.82,16.82,0,0,0-4.16-1c-2.44-.28-4,0-4-.14a3.85,3.85,0,0,1,1.07-.2,16.8,16.8,0,0,1,7.24.88,10.7,10.7,0,0,1,4.49,3l.49.62-.39,0a14.66,14.66,0,0,1,4.36-2.67,13.43,13.43,0,0,1,4.06-.84,18,18,0,0,1,2.77.05A4,4,0,0,1,195.74,56Z" style="fill:#263238"></path></g><g id="freepik--Road--inject-64"><path d="M246.14,144.28c.06.13-53.52,25.73-119.66,57.17S6.64,258.29,6.58,258.16,60.09,232.43,126.26,201,246.08,144.15,246.14,144.28Z" style="fill:#263238"></path><path d="M240.24,149.34c.13.16-2.92,2.08-8.58,5.22s-13.9,7.61-24.12,13.05c-20.44,10.87-48.79,25.68-80.16,41.93S67.55,240.42,46.94,251L22.52,263.43l-6.65,3.36-1.74.86-.6.28.57-.33,1.72-.9,6.61-3.45,24.34-12.61,80.37-41.56c31.37-16.25,59.74-31,80.23-41.8,10.24-5.39,18.51-9.8,24.19-12.9,2.84-1.55,5-2.77,6.51-3.63.73-.43,1.29-.77,1.65-1A4.16,4.16,0,0,0,240.24,149.34Z" style="fill:#263238"></path><path d="M252.3,141.49c.06-.13,53.74,25.26,119.88,56.7s119.74,57.05,119.68,57.18S438.13,230.11,372,198.66,252.24,141.62,252.3,141.49Z" style="fill:#263238"></path><path d="M258.2,146.55a6,6,0,0,0,.52.39c.36.25.92.59,1.65,1,1.47.86,3.67,2.08,6.51,3.63,5.68,3.1,13.95,7.51,24.19,12.9,20.49,10.79,48.86,25.55,80.23,41.8l80.37,41.56L476,260.46l6.61,3.45,1.72.9c.38.21.57.33.57.33l-.6-.28-1.73-.86-6.66-3.36L451.5,248.18c-20.61-10.55-49.06-25.18-80.44-41.43s-59.72-31.06-80.16-41.93c-10.22-5.44-18.47-9.89-24.12-13S258.07,146.71,258.2,146.55Z" style="fill:#263238"></path><rect x="250.52" y="388.41" width="18.37" height="83.13" style="fill:#e0e0e0"></rect><path d="M140.22,311.8c.1.1-11.78,12.14-26.53,26.9s-26.81,26.64-26.91,26.54,11.78-12.15,26.54-26.91S140.12,311.69,140.22,311.8Z" style="fill:#263238"></path><path d="M140.87,296.11c.1.1-7,7.17-15.76,15.79s-16,15.52-16.13,15.42,7-7.18,15.76-15.79S140.77,296,140.87,296.11Z" style="fill:#263238"></path><path d="M383,293.16c-.11.1-9.64-9.3-21.31-21s-21-21.28-20.93-21.38,9.64,9.3,21.3,21S383.12,293.06,383,293.16Z" style="fill:#263238"></path><path d="M398.52,317.74c-.1.1-8.17-7.78-18-17.6s-17.76-17.88-17.66-18,8.17,7.78,18,17.61S398.62,317.64,398.52,317.74Z" style="fill:#263238"></path></g><g id="freepik--Sign--inject-64"><rect x="410.88" y="132.76" width="5.34" height="80.8" style="fill:#455a64"></rect><rect x="395.11" y="95.15" width="36.88" height="36.88" rx="4.16" transform="translate(40.81 325.69) rotate(-45)" style="fill:#fafafa"></rect><path d="M410.61,136.72a5.26,5.26,0,0,0,1.18.77,4.11,4.11,0,0,0,3.85-.24,15.28,15.28,0,0,0,2.13-2l2.47-2.5,6-6.09,7.32-7.37,2-2a7.29,7.29,0,0,0,1.77-2.21,3.94,3.94,0,0,0,.06-2.79,3.81,3.81,0,0,0-.72-1.25c-.32-.37-.73-.74-1.09-1.11L416.3,90.63a3.94,3.94,0,0,0-3.08-1.13,4,4,0,0,0-1.59.49,6,6,0,0,0-1.3,1.1L405.4,96l-9.33,9.31-4.34,4.33a10.13,10.13,0,0,0-1.89,2.15,4,4,0,0,0-.34,2.62,4.11,4.11,0,0,0,1.32,2.22l1.87,1.88,3.51,3.54,10.58,10.69C408,134,409,135,409.64,135.68l.73.77.24.27s-.1-.07-.28-.23l-.77-.74-2.92-2.85-10.7-10.58-3.54-3.51-1.88-1.87a4.57,4.57,0,0,1-1.44-2.43,4.37,4.37,0,0,1,.37-2.92,4.47,4.47,0,0,1,.91-1.21l1-1,4.33-4.35L405,95.65,410,90.72a6.61,6.61,0,0,1,1.42-1.18,4.2,4.2,0,0,1,1.8-.55,4.47,4.47,0,0,1,3.49,1.27L436,109.59c.37.39.74.72,1.11,1.14a4.25,4.25,0,0,1,.8,1.4,4.34,4.34,0,0,1-.92,4.43c-.35.37-.7.7-1,1l-2,2-7.36,7.32-6.09,6-2.5,2.48-1.11,1.08a5.22,5.22,0,0,1-1.1.91,4.22,4.22,0,0,1-4,.16,3.82,3.82,0,0,1-.89-.6C410.69,136.82,410.6,136.73,410.61,136.72Z" style="fill:#263238"></path><path d="M413.54,134.81a4.09,4.09,0,0,1-2.89-1.2l-17.13-17.13a4.11,4.11,0,0,1,0-5.79l17.13-17.13a4.09,4.09,0,0,1,5.79,0l17.13,17.13a4.11,4.11,0,0,1,0,5.79l-17.13,17.13A4.09,4.09,0,0,1,413.54,134.81Zm0-42c-.47-.35-1.44.06-2.58,1.07L393.83,111a3.65,3.65,0,0,0,0,5.17L411,133.3a3.66,3.66,0,0,0,5.17,0l17.13-17.13a3.65,3.65,0,0,0,0-5.17L416.13,93.87A3.64,3.64,0,0,0,413.54,92.8Z" style="fill:#455a64"></path><path d="M422.25,113.25a.71.71,0,0,0-.43-.35,6.85,6.85,0,0,0-1-2.36c-.5-1.85-1.64-3.34-2.13-3.39-.91-.09-2,2.49-2.73,2.64s-2.6-2.67-3.53-2.48c-.6.13-2.05,3.41-2.37,3.56a1.24,1.24,0,0,1-1.36-.4,2.86,2.86,0,0,1-.35-1.56s.13-1.48.17-2.46c0-.19,0-.38,0-.55h0a1,1,0,0,0,0-.27,8.65,8.65,0,0,0-.47-1.17,1,1,0,0,0,.19-1.06s-.4.11-.55.13-.34.41-.34.41-.35-.08-.42-.08-1.19.26-1.37.31a2.59,2.59,0,0,1-.72,0l-.7-.1a2,2,0,0,0-.46.37c0,.06,0,.3,0,.3s-.2.16-.22.27.25.28.25.28a.36.36,0,0,0,0,.18c0,.09.46.37.54.41s.16-.11.34-.14a12.15,12.15,0,0,1,1.22.4c.45.11.56.64.58.84a12.82,12.82,0,0,1-.22,3.71,4.07,4.07,0,0,0,1.1,3.26,13.92,13.92,0,0,1,1.91,2.85c.44.86.82,1.62.87,1.75a4.2,4.2,0,0,1,0,1.25,13.47,13.47,0,0,1,.63,3.09,3,3,0,0,1-.78,1.6h1.91l-.19-.29a.35.35,0,0,0,.28-.52,5.58,5.58,0,0,1-.53-1.76c0-.24,0-2,.07-3.69.24.46.43.82.46.92a4.14,4.14,0,0,1,0,1.24,13.06,13.06,0,0,1,.63,3.09,4.19,4.19,0,0,1-.47,1.6h1.61l0-.33s.49-.08.28-.52a5.69,5.69,0,0,1-.69-1.71c0-.34.06-3.67.11-5.65l1,.06c.27,0,.67,0,1.13,0a3.43,3.43,0,0,0,1.34,1.5c1.68.92,1.4,1.49,1.4,1.49l0,4a9.39,9.39,0,0,1-.78.82c-.13,0,1.72,0,1.72,0s.11-.21,0-.92c-.09-.4.56-2.81.68-4.21.36.41.25.65.25.65l0,4a8.16,8.16,0,0,1-.78.81,16.39,16.39,0,0,0,1.72,0s.11-.21-.05-.91c-.12-.52,1-4.42.61-5.1a5.1,5.1,0,0,1-.76-2.82,21.83,21.83,0,0,0,.35-4.66,3.46,3.46,0,0,1,.29.58c.13.31.23.54.32.72a.82.82,0,0,0-.1.8c.07.19.23.36.2.56l.22-.23c-.05,0,0,.15.05.18a.21.21,0,0,0,.2,0,.44.44,0,0,0,.1-.19A1,1,0,0,0,422.25,113.25Z" style="fill:#9CC378"></path></g><g id="freepik--Character--inject-64"><path d="M290,216.69s3.56,10.25,9.23,9.56a9.25,9.25,0,0,0,7.73-6.16,13.7,13.7,0,0,0,.57-7.89c-2.07-9.95-6.76-31.85-6.76-31.85L284.63,183,290,216.69" style="fill:#ffbe9d"></path><polygon points="242.66 400.82 243.93 430.88 260.16 430.52 258.95 400.4 242.66 400.82" style="fill:#9CC378"></polygon><path d="M251.9,429.57c.14,0-.11-6.59-.56-14.7s-.92-14.68-1.05-14.67.11,6.58.56,14.7S251.77,429.58,251.9,429.57Z" style="fill:#263238"></path><polygon points="243.84 428.81 260.08 428.39 260.16 430.52 243.93 430.88 243.84 428.81" style="fill:#e0e0e0"></polygon><path d="M259.78,420.9a2.26,2.26,0,0,0-.45-.64,10.83,10.83,0,0,0-1.52-1.48,11,11,0,0,0-2.7-1.64,8.69,8.69,0,0,0-3.82-.7,8.57,8.57,0,0,0-6.19,3.05,7,7,0,0,0-1.11,1.82,1.87,1.87,0,0,0-.22.74,17.51,17.51,0,0,1,1.59-2.34,8.66,8.66,0,0,1,6-2.77,9.93,9.93,0,0,1,6.28,2.11C259,420.1,259.71,421,259.78,420.9Z" style="fill:#263238"></path><g style="opacity:0.30000000000000004"><polygon points="259.29 408.97 259.43 412.29 243.16 412.58 243.05 410.08 259.29 408.97"></polygon></g><path d="M245.47,150.72l22.35-.29-2.5-19s1.53-.33,1.63-8.61.48-22.34.48-22.34h0a28.77,28.77,0,0,0-28.91,3.63l-1.22,1Z" style="fill:#ffbe9d"></path><path d="M239.89,115.22c-.14-.06-5.69-1.68-5.5,4s5.82,4.31,5.83,4.14S239.89,115.22,239.89,115.22Z" style="fill:#ffbe9d"></path><path d="M266.47,114c.14-.06,5.19-1.42,5,4.24s-5.83,4.31-5.83,4.14S266.47,114,266.47,114Z" style="fill:#ffbe9d"></path><path d="M272.82,97.69A3,3,0,0,0,271.69,95a2.15,2.15,0,0,0-2.8.21,2.54,2.54,0,0,0-2.18-3.07c-1.35-.08-2.5.94-3.8,1.29A6.18,6.18,0,0,1,259,93c-1.22-.5-2.37-1.18-3.61-1.63a10.58,10.58,0,0,0-13.54,6.22,4.68,4.68,0,0,0-5,1.88,7.71,7.71,0,0,0-1.18,5.43,17.65,17.65,0,0,0,.94,3.72c0,.11,0,.21,0,.32.08,4.55,2.45,18.93,4.4,19,3.38.05.72-15.36.72-15.36,4.15-1.61,2.6-7.83,3.64-8.77s3.21-3.14,11.91,1.3a16.87,16.87,0,0,0,10.32,1.12l.21,0h.05l.08,0a8.11,8.11,0,0,0,2.23-1,4.41,4.41,0,0,0,1.83-2,2.42,2.42,0,0,0-.47-2.6A5.28,5.28,0,0,0,272.82,97.69Z" style="fill:#263238"></path><path d="M238.06,114.59c.84,4.74.68,7.23,1.46,10.4,1.24,5,3.73,8.85,8.24,11.36s10.62,2.46,14.5-.95c2.69-2.37,4.6-5,5-8.6s.8-9.86.83-13.45c0-6.46.47-12.64.47-12.64L250.1,97.37l-10.5,6.25Z" style="fill:#263238"></path><path d="M257.1,139.21a6,6,0,0,1-3.24.28,5.93,5.93,0,0,1-3.09-1c0-.14,1.42.28,3.15.47S257.08,139.06,257.1,139.21Z" style="fill:#263238"></path><path d="M261.9,96.54a2.46,2.46,0,0,1-.88.16,5,5,0,0,1-2.36-.55,16.73,16.73,0,0,1-3-2,8.09,8.09,0,0,0-3.9-1.8,7,7,0,0,0-4.2.73,6.9,6.9,0,0,0-2.57,2.4,7.86,7.86,0,0,0-1.09,3.08,3.93,3.93,0,0,1,.09-.89,6.93,6.93,0,0,1,.88-2.27,6.86,6.86,0,0,1,2.6-2.48,7.06,7.06,0,0,1,4.32-.78,8.14,8.14,0,0,1,4,1.86,18.32,18.32,0,0,0,2.94,2,5.24,5.24,0,0,0,2.3.6A6.3,6.3,0,0,0,261.9,96.54Z" style="fill:#455a64"></path><path d="M244.17,98.87a7.49,7.49,0,0,0-1.33-.49,4.24,4.24,0,0,0-5.17,3.21,7.63,7.63,0,0,0-.15,1.4,1.21,1.21,0,0,1-.06-.38,3.48,3.48,0,0,1,.07-1.06,4.25,4.25,0,0,1,5.35-3.31,3.88,3.88,0,0,1,1,.4A1.74,1.74,0,0,1,244.17,98.87Z" style="fill:#455a64"></path><path d="M243.62,119.06a11.09,11.09,0,0,1-1.55-2.91,10.78,10.78,0,0,1-1.07-3.1,10.72,10.72,0,0,1,1.55,2.9A10.69,10.69,0,0,1,243.62,119.06Z" style="fill:#455a64"></path><path d="M248.46,122.31a8.94,8.94,0,0,1-4-6.06c.15,0,.68,1.5,1.78,3.16S248.56,122.19,248.46,122.31Z" style="fill:#455a64"></path><path d="M253.23,123.35A5,5,0,0,1,251,122c-1.09-.95-1.76-1.92-1.65-2s.94.69,2,1.61S253.31,123.23,253.23,123.35Z" style="fill:#455a64"></path><path d="M261.66,115.68a6.66,6.66,0,0,1-2.14,5.17,25.4,25.4,0,0,1,1.16-2.55A25.74,25.74,0,0,1,261.66,115.68Z" style="fill:#455a64"></path><path d="M264.52,111.21a6.35,6.35,0,0,1-.33,3.47,6.13,6.13,0,0,1-1.72,3c-.12-.08.68-1.4,1.23-3.18S264.36,111.21,264.52,111.21Z" style="fill:#455a64"></path><path d="M266.71,99.77a3.13,3.13,0,0,1-.74.57,5.52,5.52,0,0,1-2.43.75,8.34,8.34,0,0,1-3.73-.57,30.52,30.52,0,0,1-4.13-2.06,17.71,17.71,0,0,0-4.2-1.81,6.92,6.92,0,0,0-3.68,0,5.22,5.22,0,0,0-2.16,1.24c-.42.42-.58.72-.6.7a3.31,3.31,0,0,1,.55-.76,4.92,4.92,0,0,1,2.17-1.31,6.87,6.87,0,0,1,3.76-.07,17.07,17.07,0,0,1,4.26,1.82,32.09,32.09,0,0,0,4.1,2.06,8.5,8.5,0,0,0,3.65.61A5.72,5.72,0,0,0,266.71,99.77Z" style="fill:#455a64"></path><path d="M268.35,102.46a1.33,1.33,0,0,1-.3.2,7.29,7.29,0,0,1-.88.43,10.62,10.62,0,0,1-6.36.58,6.15,6.15,0,0,1-.95-.27c-.22-.08-.33-.12-.33-.14s.5.12,1.3.27a12.16,12.16,0,0,0,3.19.13,12,12,0,0,0,3.1-.71C267.88,102.66,268.33,102.42,268.35,102.46Z" style="fill:#455a64"></path><path d="M231.52,189.69,215.39,187s-7.76,28.33-9.4,36.34S202.9,257,202.9,257h0c-.46,2.84-2.25,13.33-1.28,14.71a4.41,4.41,0,0,0,3.69,1.66s.37,2.12,1.94,2.12c0,0,.64,1.84,2.21,2s7.75,0,7.75,0,.09-2.31-1.85-2.49c0,0-.18-1.48-3.32-1.57,0,0,.83-2-1.75-2.58l-1-.52,1.76-4.2.83.79c.83.79,1.57,4.85,2.58,4.94a4.65,4.65,0,0,0,2.31-.74l-2.29-14.89-2-2.37,10.41-32.08Z" style="fill:#ffbe9d"></path><path d="M205.66,269.39a6.42,6.42,0,0,0,2.13.62,14.07,14.07,0,0,1,2.48.37,3.42,3.42,0,0,1,1.35.77,2.18,2.18,0,0,1,.73,1.57,1.39,1.39,0,0,1-.31.9,1.14,1.14,0,0,1-.88.37l-1.48-.08-2.46-.18a9.67,9.67,0,0,1-2.27-.3,10.46,10.46,0,0,1,2.29-.07l2.47.07,1.44.05a.64.64,0,0,0,.5-.2.94.94,0,0,0,.18-.57,2.25,2.25,0,0,0-1.71-1.87,17.76,17.76,0,0,0-2.39-.46C206.29,270.14,205.59,269.44,205.66,269.39Z" style="fill:#eb996e"></path><path d="M215.17,274.74s.21,0,.31.24a.67.67,0,0,1,0,.49.79.79,0,0,1-.52.38,7.51,7.51,0,0,1-1.45.08l-1.71,0a19.43,19.43,0,0,1-4.4-.36,18.18,18.18,0,0,1,4.41-.16l1.71.06a11.23,11.23,0,0,0,1.36,0,.46.46,0,0,0,.45-.47C215.27,274.84,215.15,274.78,215.17,274.74Z" style="fill:#eb996e"></path><path d="M205.61,265.82c.14,0,.18.76.08,1.67s-.29,1.63-.43,1.61-.18-.76-.08-1.67S205.47,265.81,205.61,265.82Z" style="fill:#eb996e"></path><path d="M210.52,261.33c.12.07-.4,1.08-1.5,1.92a3.51,3.51,0,0,1-2.24.95c-.05-.14.92-.58,1.93-1.36S210.39,261.24,210.52,261.33Z" style="fill:#eb996e"></path><path d="M211.06,265.83c-.1.1-.53-.22-.82-.79s-.29-1.11-.16-1.14.36.4.62.9S211.17,265.74,211.06,265.83Z" style="fill:#eb996e"></path><path d="M290.72,243.88H262.14l-34.08,4.61s2.73,48.75,3.57,63.68S233,352.44,233,352.44l6.39,59,22.11-2.36V397.82c13.13-3.14,18.59,4.46,18.59,4.46s8.19-38.86,9.31-46.18,0-34.93,0-34.93Zm-29.26,108.3V292.52l.68-19.25v4.37l1.32,48.82Z" style="fill:#263238"></path><path d="M250,321.13a20.14,20.14,0,0,0-13.24.64,5.52,5.52,0,0,1,1.77-.95,14.92,14.92,0,0,1,4.77-1,15.26,15.26,0,0,1,4.84.54A5.52,5.52,0,0,1,250,321.13Z" style="fill:#455a64"></path><path d="M286.08,326.46a28.8,28.8,0,0,1-3-.52,44.61,44.61,0,0,0-14.4-.25,28.39,28.39,0,0,1-3,.42,12.65,12.65,0,0,1,2.92-.79,35.76,35.76,0,0,1,7.28-.61,35.19,35.19,0,0,1,7.25.87A12.31,12.31,0,0,1,286.08,326.46Z" style="fill:#455a64"></path><path d="M286.56,321.13a24.22,24.22,0,0,1-2.85-.41,46.11,46.11,0,0,0-6.87-.52,45.65,45.65,0,0,0-6.88.55,23,23,0,0,1-2.85.42,12,12,0,0,1,2.78-.79,36,36,0,0,1,6.94-.7,35.56,35.56,0,0,1,6.95.67A11.58,11.58,0,0,1,286.56,321.13Z" style="fill:#455a64"></path><path d="M280.05,397c-.07.06-.86-.87-2.47-1.95a14.43,14.43,0,0,0-14.34-1.19c-1.76.8-2.7,1.59-2.76,1.51s.19-.24.62-.59a12.85,12.85,0,0,1,2-1.26,13.94,13.94,0,0,1,14.72,1.22,12.82,12.82,0,0,1,1.74,1.57C279.9,396.67,280.08,396.93,280.05,397Z" style="fill:#455a64"></path><path d="M238.6,254.7l.24,0,.73-.1,2.82-.36L252.57,253l.18,0v.19c.21,3.37.46,7.26.72,11.39v.11l-.08.06-1.11.87c-1.94,1.52-3.83,3-5.61,4.38l-.1.07-.11-.05-7.12-3.36-.09,0v-.1c-.21-3.54-.38-6.49-.51-8.61l-.12-2.37c0-.54,0-.82,0-.81a1.21,1.21,0,0,1,0,.23l.06.64c.06.6.13,1.4.22,2.4.16,2.09.4,5,.68,8.5l-.1-.14,7.14,3.31-.21,0,5.61-4.38,1.1-.87-.07.17c-.24-4.14-.47-8-.67-11.4l.2.16-10.08,1-2.87.27-.77.06A.88.88,0,0,1,238.6,254.7Z" style="fill:#455a64"></path><path d="M268.1,251.77s.07,0,.24,0h3.56l10.21.08h.19V252c-.21,3.36-.45,7.24-.71,11.36v.1l-.09.06-1.2.72-6.1,3.63-.11.06-.1-.07-6.62-4.2-.08-.06v-.09c.24-3.53.43-6.47.57-8.58.07-1,.13-1.77.17-2.36a5.29,5.29,0,0,1,.09-.8V252c0,.18,0,.39,0,.64,0,.6,0,1.4-.09,2.4-.1,2.09-.23,5-.39,8.48l-.07-.14,6.64,4.16H274l6.09-3.64,1.21-.72-.1.16c.28-4.13.54-8,.76-11.36l.18.19-10.1-.25-2.87-.09-.77,0Z" style="fill:#455a64"></path><path d="M262.13,277.63c-.14,0-.41-6.25-.59-14s-.23-14-.08-14,.41,6.25.6,14S262.28,277.63,262.13,277.63Z" style="fill:#455a64"></path><path d="M261.37,273.81a9.61,9.61,0,0,1-2.33,1.3,29.84,29.84,0,0,1-12.52,2.66,10.57,10.57,0,0,1-2.66-.24,18.71,18.71,0,0,1,2.65-.13,37.58,37.58,0,0,0,12.39-2.63A22.47,22.47,0,0,1,261.37,273.81Z" style="fill:#455a64"></path><path d="M282.08,270.33a17.22,17.22,0,0,1-2.93.33c-1.81.15-4.31.37-7.07.68s-5.24.64-7,.89a19.35,19.35,0,0,1-2.94.33,14.76,14.76,0,0,1,2.88-.69c1.79-.34,4.28-.74,7-1.05s5.29-.47,7.11-.53A14.8,14.8,0,0,1,282.08,270.33Z" style="fill:#455a64"></path><path d="M280.05,401.61a2.38,2.38,0,0,1-.34-.23l-1-.72-.7-.52-.91-.55-1.07-.63-1.28-.58a18.33,18.33,0,0,0-7-1.53,20.33,20.33,0,0,0-9.25,2l-.31.15,0-.34c1.35-12.68,2.94-29.9,3.85-48.88,1-19.91,1-38,.72-51-.14-6.53-.34-11.81-.49-15.46-.07-1.8-.13-3.21-.17-4.2,0-.46,0-.82,0-1.1a1.33,1.33,0,0,1,0-.37s0,.12,0,.37.05.63.08,1.09c.07,1,.16,2.4.27,4.2.21,3.65.47,8.93.66,15.46.39,13.06.42,31.13-.57,51.06-.91,19-2.55,36.22-4,48.89l-.28-.18a20.37,20.37,0,0,1,9.43-2,18.54,18.54,0,0,1,7.1,1.63l1.28.62,1.06.65.91.57.69.56.93.76Q280.06,401.6,280.05,401.61Z" style="fill:#455a64"></path><path d="M287.13,315.49s-.23.21-.72.51a16.76,16.76,0,0,1-2.13,1.09,23.91,23.91,0,0,1-15.53,1.16,16.83,16.83,0,0,1-2.27-.76,3.13,3.13,0,0,1-.79-.39c0-.09,1.2.36,3.15.79a27,27,0,0,0,7.73.56,26.72,26.72,0,0,0,7.57-1.71C286,316,287.09,315.41,287.13,315.49Z" style="fill:#455a64"></path><path d="M256.64,322.6a13.63,13.63,0,0,1-2.54.27l-6.11.44-6.1.52a12.14,12.14,0,0,1-2.54.13,12.1,12.1,0,0,1,2.5-.5c1.55-.23,3.71-.48,6.1-.67s4.57-.28,6.14-.29A11.41,11.41,0,0,1,256.64,322.6Z" style="fill:#455a64"></path><path d="M278.47,406.92l.59-5.73s-6.27-6.62-17.83-3.39L258,413.65a53,53,0,0,0-4.91,7.89,5.29,5.29,0,0,0-1.29,2.06c-.6,1.82-.63,6.21.61,7.67s1.16,2,2.83,2.92c2.36,1.37,7.64.93,10.22,0,2.09-.73,3.4-2.76,4.49-4.68a99.83,99.83,0,0,0,7.33-16.23c.3-.87.59-1.76.82-2.66h0A11.5,11.5,0,0,0,278.47,406.92Z" style="fill:#9CC378"></path><g style="opacity:0.5"><path d="M268.93,399.42c-4.53-.38-8.28,5.84-9.1,10.94A26.76,26.76,0,0,1,258.7,416c-1.23,3.26-5.83,4.3-6.9,7.61-.6,1.82-.63,6.21.61,7.67s1.16,2,2.83,2.92c2.36,1.37,7.64.93,10.22,0,2.09-.73,3.4-2.76,4.49-4.68a99.83,99.83,0,0,0,7.33-16.23c.82-2.35,1.55-4.85,1.07-7.29a8.85,8.85,0,0,0-13-5.49"></path></g><path d="M252,431s-.16-.18-.37-.59a3.65,3.65,0,0,1-.33-.78,6.19,6.19,0,0,1-.32-1.11,9.14,9.14,0,0,1,1.61-7.06h0l0,0a30.22,30.22,0,0,1,2.83-2.45,9.84,9.84,0,0,0,2.68-2.88,11.41,11.41,0,0,0,1.16-4.13,38.33,38.33,0,0,1,.74-4.81,11.25,11.25,0,0,1,7-7.87,9.15,9.15,0,0,1,8.53,1.3,8,8,0,0,1,2.94,5.07,3.85,3.85,0,0,1-.13,2.15c-.1,0,0-.78-.27-2.08a8,8,0,0,0-3-4.56,8.47,8.47,0,0,0-7.77-1,10.42,10.42,0,0,0-6.35,7.23,40.48,40.48,0,0,0-.72,4.67A12.07,12.07,0,0,1,259,416.6a10.69,10.69,0,0,1-3,3.11,31,31,0,0,0-2.82,2.31l0,0a9.19,9.19,0,0,0-1.63,3.51,8.58,8.58,0,0,0-.15,3C251.67,430.11,252.12,431,252,431Z" style="fill:#fafafa"></path><path d="M272.91,421.44a3.6,3.6,0,0,1-.6.51c-.39.32-1,.75-1.73,1.26a46,46,0,0,1-6.11,3.52,46.94,46.94,0,0,1-6.57,2.55c-.87.25-1.57.44-2.07.55a3.06,3.06,0,0,1-.77.14,4.37,4.37,0,0,1,.74-.26c.48-.14,1.18-.36,2-.64a55.28,55.28,0,0,0,12.63-6c.76-.49,1.36-.89,1.78-1.18A3.39,3.39,0,0,1,272.91,421.44Z" style="fill:#263238"></path><path d="M267.93,420.91a6.09,6.09,0,0,1-1.3.68c-.82.38-2,.85-3.3,1.3a35.36,35.36,0,0,1-3.41,1,6.28,6.28,0,0,1-1.45.23,8.21,8.21,0,0,1,1.4-.45c.86-.25,2.06-.6,3.36-1s2.47-.88,3.32-1.2A7,7,0,0,1,267.93,420.91Z" style="fill:#263238"></path><path d="M264.75,429.94a7,7,0,0,1-.52-1.6,26,26,0,0,1-.71-4,27.71,27.71,0,0,1-.1-4.06,6.81,6.81,0,0,1,.19-1.67,10.7,10.7,0,0,1,0,1.67c0,1,0,2.46.19,4s.41,3,.61,4A12.15,12.15,0,0,1,264.75,429.94Z" style="fill:#263238"></path><path d="M273.5,407.66a25.12,25.12,0,0,1-3.66,1.43,24.58,24.58,0,0,1-3.76,1.15,24.44,24.44,0,0,1,3.66-1.44A23.82,23.82,0,0,1,273.5,407.66Z" style="fill:#263238"></path><polygon points="229.37 224.72 230.21 192.04 224.59 168.73 226.27 152.78 244.22 143.72 266.68 141.78 285.86 146.77 285.92 209.69 291.93 246.59 227.02 249.88 229.37 224.72" style="fill:#9CC378"></polygon><path d="M277.81,219.18a8.61,8.61,0,0,1-1,1.19,15.67,15.67,0,0,1-1.24,1.29c-.52.48-1.07,1.06-1.77,1.6a27.53,27.53,0,0,1-2.3,1.74,31.91,31.91,0,0,1-2.82,1.77,38.16,38.16,0,0,1-7,2.95,39,39,0,0,1-7.47,1.37,31.24,31.24,0,0,1-3.32.06A25.15,25.15,0,0,1,248,231c-.88-.07-1.66-.25-2.35-.37a13.25,13.25,0,0,1-1.75-.4,10.06,10.06,0,0,1-1.46-.46c0-.12,2.12.54,5.6.86a27.74,27.74,0,0,0,2.85.14c1,0,2.12,0,3.27-.12a36.21,36.21,0,0,0,14.28-4.26c1-.58,2-1.1,2.8-1.7A25.89,25.89,0,0,0,273.6,223C276.33,220.79,277.72,219.1,277.81,219.18Z" style="fill:#263238"></path><path d="M228.61,152.53s-6.37-1.23-9.45,10.06-7.86,30.25-7.86,30.25l21.33-.8-2.58-38.69" style="fill:#9CC378"></path><path d="M285.86,146.77s11.95.53,14.26,20.8c.07.61,4.09,22,4.09,22H283.14Z" style="fill:#9CC378"></path><path d="M228.06,167a5.35,5.35,0,0,1,.16,1.13q.1,1.26.27,3.09c.23,2.73.53,6.27.85,10.19s.57,7.59.7,10.21c.07,1.3.11,2.36.11,3.1a5.12,5.12,0,0,1,0,1.14,4.63,4.63,0,0,1-.16-1.13q-.1-1.26-.27-3.09l-.86-10.19c-.31-4-.57-7.59-.7-10.21-.06-1.3-.1-2.36-.11-3.1A4.67,4.67,0,0,1,228.06,167Z" style="fill:#263238"></path><path d="M287.64,166a4.06,4.06,0,0,1,0,1.09c0,.7,0,1.72-.1,3-.12,2.5-.36,6-.64,9.77s-.52,7.14-.7,9.76c-.08,1.16-.15,2.15-.2,3a4.77,4.77,0,0,1-.13,1.08,4.12,4.12,0,0,1-.07-1.09c0-.7,0-1.71,0-3,.06-2.51.26-6,.55-9.78s.58-7.13.79-9.76c.11-1.15.2-2.14.27-2.95A4.87,4.87,0,0,1,287.64,166Z" style="fill:#263238"></path><path d="M286.12,147.1a7.39,7.39,0,0,1,1.13,3.21,7.18,7.18,0,0,1,.07,3.4,23.33,23.33,0,0,1-.58-3.31A24.44,24.44,0,0,1,286.12,147.1Z" style="fill:#263238"></path><path d="M264.78,218.88a11.74,11.74,0,0,1-2.34,1.2,55.68,55.68,0,0,1-6,2.18,52.09,52.09,0,0,1-6.18,1.48,11,11,0,0,1-2.62.3,15.55,15.55,0,0,1,2.55-.66c1.57-.37,3.74-.9,6.1-1.61s4.46-1.47,6-2A15.16,15.16,0,0,1,264.78,218.88Z" style="fill:#263238"></path><path d="M229.46,185a77.58,77.58,0,0,1-8.62,1.95,76.34,76.34,0,0,1-8.72,1.45,72.45,72.45,0,0,1,8.62-2A71.72,71.72,0,0,1,229.46,185Z" style="fill:#fafafa"></path><path d="M227.78,175.09a27.29,27.29,0,0,1-5.31-.55,28.16,28.16,0,0,1-5.22-1.06,26.37,26.37,0,0,1,5.3.55A27.44,27.44,0,0,1,227.78,175.09Z" style="fill:#fafafa"></path><path d="M290,160.29c0,.14-15.14.07-33.82-.17s-33.82-.54-33.82-.68,15.15-.07,33.83.16S290,160.14,290,160.29Z" style="fill:#fafafa"></path><path d="M284,146.23a1.66,1.66,0,0,1-.5.12l-1.46.23c-1.28.2-3.12.45-5.4.74-4.57.58-10.88,1.3-17.87,1.94s-13.33,1.08-17.93,1.33c-2.29.13-4.15.21-5.44.25l-1.48,0a3,3,0,0,1-.52,0,1.85,1.85,0,0,1,.51-.09l1.48-.13,5.43-.42c4.58-.34,10.92-.84,17.9-1.48s13.3-1.3,17.87-1.79l5.42-.57,1.48-.13A2.46,2.46,0,0,1,284,146.23Z" style="fill:#fafafa"></path><path d="M287.75,175.77c0,.14-13,1-29,2s-29,1.63-29,1.48,13-1,29-2S287.74,175.62,287.75,175.77Z" style="fill:#fafafa"></path><path d="M284.94,186.22c0,.14-11.93,2.46-26.7,5.18s-26.78,4.81-26.8,4.67,11.93-2.46,26.7-5.18S284.91,186.08,284.94,186.22Z" style="fill:#fafafa"></path><path d="M283.75,205.24c0,.14-12.09.1-27-.09s-27-.47-27-.61,12.09-.11,27,.09S283.76,205.1,283.75,205.24Z" style="fill:#fafafa"></path><path d="M303.36,180.4a61.1,61.1,0,0,1-8.1.14,60.83,60.83,0,0,1-8.1-.38,65.72,65.72,0,0,1,8.11-.14A64.91,64.91,0,0,1,303.36,180.4Z" style="fill:#fafafa"></path><path d="M299.37,169.41a38,38,0,0,1-6.05,1.46,38.2,38.2,0,0,1-6.14.95,36.78,36.78,0,0,1,6-1.46A36.93,36.93,0,0,1,299.37,169.41Z" style="fill:#fafafa"></path><path d="M259,220.8c0,.15-6.48.58-14.49,1s-14.5.58-14.5.44,6.47-.57,14.48-1S259,220.66,259,220.8Z" style="fill:#fafafa"></path><path d="M286.29,215.4a100.75,100.75,0,0,1-10,1.87,100.36,100.36,0,0,1-10.12,1.37,95.72,95.72,0,0,1,10-1.88A95.59,95.59,0,0,1,286.29,215.4Z" style="fill:#fafafa"></path><path d="M255.33,231.14c0,.13-6,2.42-13.45,5.11s-13.58,4.76-13.62,4.63,6-2.43,13.45-5.12S255.28,231,255.33,231.14Z" style="fill:#fafafa"></path><path d="M285.71,222.74a59.66,59.66,0,0,1-7.62,1.68,59.36,59.36,0,0,1-7.73,1.16A60.09,60.09,0,0,1,278,223.9,59.61,59.61,0,0,1,285.71,222.74Z" style="fill:#fafafa"></path><path d="M289.75,242.59c0,.14-13.8,1.2-30.83,2.36s-30.86,2-30.87,1.85,13.79-1.2,30.83-2.37S289.74,242.45,289.75,242.59Z" style="fill:#fafafa"></path><g style="opacity:0.30000000000000004"><path d="M244.9,230.42c-1-.74-.46-2.5.65-3.08a6.49,6.49,0,0,1,3.69-.28,27.18,27.18,0,0,0,21.27-7.51,6.43,6.43,0,0,1,2.26-1.7,1.93,1.93,0,0,1,2.43.86,2.54,2.54,0,0,1-.45,2.12c-2.77,4.76-7.87,7.81-13.21,9.14s-10.94,1.09-16.41.55"></path></g><g style="opacity:0.30000000000000004"><path d="M228.13,169a200.79,200.79,0,0,1-4.82,23.41l6.9-.41Z"></path></g></g></svg>